%TF.GenerationSoftware,KiCad,Pcbnew,8.0.8*%
%TF.CreationDate,2025-03-04T22:32:40-05:00*%
%TF.ProjectId,PCBboya,50434262-6f79-4612-9e6b-696361645f70,rev?*%
%TF.SameCoordinates,Original*%
%TF.FileFunction,Soldermask,Bot*%
%TF.FilePolarity,Negative*%
%FSLAX46Y46*%
G04 Gerber Fmt 4.6, Leading zero omitted, Abs format (unit mm)*
G04 Created by KiCad (PCBNEW 8.0.8) date 2025-03-04 22:32:40*
%MOMM*%
%LPD*%
G01*
G04 APERTURE LIST*
G04 Aperture macros list*
%AMRoundRect*
0 Rectangle with rounded corners*
0 $1 Rounding radius*
0 $2 $3 $4 $5 $6 $7 $8 $9 X,Y pos of 4 corners*
0 Add a 4 corners polygon primitive as box body*
4,1,4,$2,$3,$4,$5,$6,$7,$8,$9,$2,$3,0*
0 Add four circle primitives for the rounded corners*
1,1,$1+$1,$2,$3*
1,1,$1+$1,$4,$5*
1,1,$1+$1,$6,$7*
1,1,$1+$1,$8,$9*
0 Add four rect primitives between the rounded corners*
20,1,$1+$1,$2,$3,$4,$5,0*
20,1,$1+$1,$4,$5,$6,$7,0*
20,1,$1+$1,$6,$7,$8,$9,0*
20,1,$1+$1,$8,$9,$2,$3,0*%
G04 Aperture macros list end*
%ADD10RoundRect,0.102000X-0.695000X0.695000X-0.695000X-0.695000X0.695000X-0.695000X0.695000X0.695000X0*%
%ADD11RoundRect,0.102000X0.695000X0.695000X-0.695000X0.695000X-0.695000X-0.695000X0.695000X-0.695000X0*%
%ADD12C,2.100000*%
%ADD13R,1.905000X2.000000*%
%ADD14O,1.905000X2.000000*%
%ADD15C,1.524000*%
%ADD16RoundRect,0.102000X-0.975000X0.975000X-0.975000X-0.975000X0.975000X-0.975000X0.975000X0.975000X0*%
%ADD17C,2.154000*%
%ADD18R,2.200000X2.200000*%
%ADD19O,2.200000X2.200000*%
%ADD20O,2.704000X5.204000*%
%ADD21O,2.454000X4.704000*%
%ADD22O,4.704000X2.454000*%
%ADD23C,1.404000*%
%ADD24RoundRect,0.102000X0.765000X-0.765000X0.765000X0.765000X-0.765000X0.765000X-0.765000X-0.765000X0*%
%ADD25C,1.734000*%
G04 APERTURE END LIST*
D10*
%TO.C,J19*%
X173040000Y-70000000D03*
%TD*%
D11*
%TO.C,J3*%
X123500000Y-78500000D03*
%TD*%
%TO.C,J10*%
X134000000Y-82000000D03*
%TD*%
D10*
%TO.C,J18*%
X177000000Y-70000000D03*
%TD*%
D11*
%TO.C,J13*%
X139500000Y-82000000D03*
%TD*%
%TO.C,J16*%
X121500000Y-104540000D03*
%TD*%
%TO.C,J7*%
X128500000Y-82000000D03*
%TD*%
%TO.C,J5*%
X123500000Y-85500000D03*
%TD*%
%TO.C,J4*%
X123500000Y-82000000D03*
%TD*%
D12*
%TO.C,REF\u002A\u002A*%
X128000000Y-93500000D03*
%TD*%
D11*
%TO.C,J8*%
X128500000Y-85500000D03*
%TD*%
%TO.C,J14*%
X134000000Y-85500000D03*
%TD*%
%TO.C,J15*%
X121500000Y-108500000D03*
%TD*%
%TO.C,J17*%
X121500000Y-100540000D03*
%TD*%
%TO.C,J9*%
X134000000Y-78500000D03*
%TD*%
D13*
%TO.C,Q1*%
X152960000Y-79445000D03*
D14*
X155500000Y-79445000D03*
X158040000Y-79445000D03*
%TD*%
D15*
%TO.C,U4*%
X102150000Y-109930000D03*
X104690000Y-109930000D03*
X107230000Y-109930000D03*
X109770000Y-109930000D03*
X112310000Y-109930000D03*
X114850000Y-109930000D03*
%TD*%
D16*
%TO.C,J2*%
X179000000Y-75960000D03*
D17*
X179000000Y-81040000D03*
%TD*%
D11*
%TO.C,J12*%
X139500000Y-78500000D03*
%TD*%
D18*
%TO.C,D1*%
X165000000Y-73420000D03*
D19*
X165000000Y-83580000D03*
%TD*%
D20*
%TO.C,J1*%
X114500000Y-78825000D03*
D21*
X108500000Y-78825000D03*
D22*
X111500000Y-83525000D03*
%TD*%
D11*
%TO.C,J6*%
X128500000Y-78500000D03*
%TD*%
%TO.C,J11*%
X139500000Y-85500000D03*
%TD*%
D23*
%TO.C,R1*%
X147000000Y-84000000D03*
X147000000Y-73000000D03*
%TD*%
D12*
%TO.C,REF\u002A\u002A*%
X104000000Y-121000000D03*
%TD*%
D24*
%TO.C,U1*%
X133650000Y-120200000D03*
D25*
X136190000Y-120200000D03*
X138730000Y-120200000D03*
X141270000Y-120200000D03*
X143810000Y-120200000D03*
X146350000Y-120200000D03*
X148890000Y-120200000D03*
X151430000Y-120200000D03*
X153970000Y-120200000D03*
X156510000Y-120200000D03*
X159050000Y-120200000D03*
X161590000Y-120200000D03*
X164130000Y-120200000D03*
X166670000Y-120200000D03*
X169210000Y-120200000D03*
X171750000Y-120200000D03*
X174290000Y-120200000D03*
X176830000Y-120200000D03*
X179370000Y-120200000D03*
X179370000Y-94800000D03*
X176830000Y-94800000D03*
X174290000Y-94800000D03*
X171750000Y-94800000D03*
X169210000Y-94800000D03*
X166670000Y-94800000D03*
X164130000Y-94800000D03*
X161590000Y-94800000D03*
X159050000Y-94800000D03*
X156510000Y-94800000D03*
X153970000Y-94800000D03*
X151430000Y-94800000D03*
X148890000Y-94800000D03*
X146350000Y-94800000D03*
X143810000Y-94800000D03*
X141270000Y-94800000D03*
X138730000Y-94800000D03*
X136190000Y-94800000D03*
X133650000Y-94800000D03*
%TD*%
M02*
