M48
; DRILL file {KiCad 8.0.8} date 2025-03-04T22:32:38-0500
; FORMAT={-:-/ absolute / inch / decimal}
; #@! TF.CreationDate,2025-03-04T22:32:38-05:00
; #@! TF.GenerationSoftware,Kicad,Pcbnew,8.0.8
; #@! TF.FileFunction,Plated,1,2,PTH
FMAT,2
INCH
; #@! TA.AperFunction,Plated,PTH,ComponentDrill
T1C0.0300
; #@! TA.AperFunction,Plated,PTH,ComponentDrill
T2C0.0315
; #@! TA.AperFunction,Plated,PTH,ComponentDrill
T3C0.0394
; #@! TA.AperFunction,Plated,PTH,ComponentDrill
T4C0.0402
; #@! TA.AperFunction,Plated,PTH,ComponentDrill
T5C0.0409
; #@! TA.AperFunction,Plated,PTH,ComponentDrill
T6C0.0433
; #@! TA.AperFunction,Plated,PTH,ComponentDrill
T7C0.0512
%
G90
G05
T1
X4.0217Y-4.328
X4.1217Y-4.328
X4.2217Y-4.328
X4.3217Y-4.328
X4.4217Y-4.328
X4.5217Y-4.328
T2
X5.7874Y-2.874
X5.7874Y-3.3071
T4
X5.2618Y-3.7323
X5.2618Y-4.7323
X5.3618Y-3.7323
X5.3618Y-4.7323
X5.4618Y-3.7323
X5.4618Y-4.7323
X5.5618Y-3.7323
X5.5618Y-4.7323
X5.6618Y-3.7323
X5.6618Y-4.7323
X5.7618Y-3.7323
X5.7618Y-4.7323
X5.8618Y-3.7323
X5.8618Y-4.7323
X5.9618Y-3.7323
X5.9618Y-4.7323
X6.0618Y-3.7323
X6.0618Y-4.7323
X6.1618Y-3.7323
X6.1618Y-4.7323
X6.2618Y-3.7323
X6.2618Y-4.7323
X6.3618Y-3.7323
X6.3618Y-4.7323
X6.4618Y-3.7323
X6.4618Y-4.7323
X6.5618Y-3.7323
X6.5618Y-4.7323
X6.6618Y-3.7323
X6.6618Y-4.7323
X6.7618Y-3.7323
X6.7618Y-4.7323
X6.8618Y-3.7323
X6.8618Y-4.7323
X6.9618Y-3.7323
X6.9618Y-4.7323
X7.0618Y-3.7323
X7.0618Y-4.7323
T5
X4.7835Y-3.9583
X4.7835Y-4.1157
X4.7835Y-4.2717
X4.8622Y-3.0906
X4.8622Y-3.2283
X4.8622Y-3.3661
X5.0591Y-3.0906
X5.0591Y-3.2283
X5.0591Y-3.3661
X5.2756Y-3.0906
X5.2756Y-3.2283
X5.2756Y-3.3661
X5.4921Y-3.0906
X5.4921Y-3.2283
X5.4921Y-3.3661
X6.8126Y-2.7559
X6.9685Y-2.7559
T6
X6.022Y-3.1278
X6.122Y-3.1278
X6.222Y-3.1278
X6.4961Y-2.8906
X6.4961Y-3.2906
T7
X7.0472Y-2.9906
X7.0472Y-3.1906
T3
G00X4.2717Y-3.1427
M15
G01X4.2717Y-3.064
M16
G05
G00X4.4291Y-3.2884
M15
G01X4.3504Y-3.2884
M16
G05
G00X4.5079Y-3.1526
M15
G01X4.5079Y-3.0541
M16
G05
M30
