%TF.GenerationSoftware,KiCad,Pcbnew,8.0.8*%
%TF.CreationDate,2025-03-04T22:32:40-05:00*%
%TF.ProjectId,PCBboya,50434262-6f79-4612-9e6b-696361645f70,rev?*%
%TF.SameCoordinates,Original*%
%TF.FileFunction,Copper,L2,Bot*%
%TF.FilePolarity,Positive*%
%FSLAX46Y46*%
G04 Gerber Fmt 4.6, Leading zero omitted, Abs format (unit mm)*
G04 Created by KiCad (PCBNEW 8.0.8) date 2025-03-04 22:32:40*
%MOMM*%
%LPD*%
G01*
G04 APERTURE LIST*
%TA.AperFunction,ComponentPad*%
%ADD10R,1.390000X1.390000*%
%TD*%
%TA.AperFunction,ComponentPad*%
%ADD11R,1.905000X2.000000*%
%TD*%
%TA.AperFunction,ComponentPad*%
%ADD12O,1.905000X2.000000*%
%TD*%
%TA.AperFunction,ComponentPad*%
%ADD13C,1.524000*%
%TD*%
%TA.AperFunction,ComponentPad*%
%ADD14R,1.950000X1.950000*%
%TD*%
%TA.AperFunction,ComponentPad*%
%ADD15C,1.950000*%
%TD*%
%TA.AperFunction,ComponentPad*%
%ADD16R,2.200000X2.200000*%
%TD*%
%TA.AperFunction,ComponentPad*%
%ADD17O,2.200000X2.200000*%
%TD*%
%TA.AperFunction,ComponentPad*%
%ADD18O,2.500000X5.000000*%
%TD*%
%TA.AperFunction,ComponentPad*%
%ADD19O,2.250000X4.500000*%
%TD*%
%TA.AperFunction,ComponentPad*%
%ADD20O,4.500000X2.250000*%
%TD*%
%TA.AperFunction,ComponentPad*%
%ADD21C,1.200000*%
%TD*%
%TA.AperFunction,ComponentPad*%
%ADD22R,1.530000X1.530000*%
%TD*%
%TA.AperFunction,ComponentPad*%
%ADD23C,1.530000*%
%TD*%
%TA.AperFunction,Conductor*%
%ADD24C,1.000000*%
%TD*%
%TA.AperFunction,Conductor*%
%ADD25C,0.600000*%
%TD*%
G04 APERTURE END LIST*
D10*
%TO.P,J19,01,01*%
%TO.N,GND*%
X173040000Y-70000000D03*
%TD*%
%TO.P,J3,01,01*%
%TO.N,+3V3*%
X123500000Y-78500000D03*
%TD*%
%TO.P,J10,01,01*%
%TO.N,/SensorTempData*%
X134000000Y-82000000D03*
%TD*%
%TO.P,J18,01,01*%
%TO.N,+BATT*%
X177000000Y-70000000D03*
%TD*%
%TO.P,J13,01,01*%
%TO.N,/SensorTempData*%
X139500000Y-82000000D03*
%TD*%
%TO.P,J16,01,01*%
%TO.N,/IO26DHT22*%
X121500000Y-104540000D03*
%TD*%
%TO.P,J7,01,01*%
%TO.N,/SensorTempData*%
X128500000Y-82000000D03*
%TD*%
%TO.P,J5,01,01*%
%TO.N,GND*%
X123500000Y-85500000D03*
%TD*%
%TO.P,J4,01,01*%
%TO.N,/SensorTempData*%
X123500000Y-82000000D03*
%TD*%
%TO.P,J8,01,01*%
%TO.N,GND*%
X128500000Y-85500000D03*
%TD*%
%TO.P,J14,01,01*%
%TO.N,GND*%
X134000000Y-85500000D03*
%TD*%
%TO.P,J15,01,01*%
%TO.N,GND*%
X121500000Y-108500000D03*
%TD*%
%TO.P,J17,01,01*%
%TO.N,+3V3*%
X121500000Y-100540000D03*
%TD*%
%TO.P,J9,01,01*%
%TO.N,+3V3*%
X134000000Y-78500000D03*
%TD*%
D11*
%TO.P,Q1,1,B*%
%TO.N,Net-(Q1-B)*%
X152960000Y-79445000D03*
D12*
%TO.P,Q1,2,C*%
%TO.N,Net-(D1-A)*%
X155500000Y-79445000D03*
%TO.P,Q1,3,E*%
%TO.N,GND*%
X158040000Y-79445000D03*
%TD*%
D13*
%TO.P,U4,1,VIN*%
%TO.N,VDC*%
X102150000Y-109930000D03*
%TO.P,U4,2,GND*%
%TO.N,GND*%
X104690000Y-109930000D03*
%TO.P,U4,3,GND*%
X107230000Y-109930000D03*
%TO.P,U4,4,BAT*%
%TO.N,+BATT*%
X109770000Y-109930000D03*
%TO.P,U4,5,GND*%
%TO.N,GND*%
X112310000Y-109930000D03*
%TO.P,U4,6,OUT-5V*%
%TO.N,+5V*%
X114850000Y-109930000D03*
%TD*%
D14*
%TO.P,J2,1,1*%
%TO.N,+5V*%
X179000000Y-75960000D03*
D15*
%TO.P,J2,2,2*%
%TO.N,Net-(D1-A)*%
X179000000Y-81040000D03*
%TD*%
D10*
%TO.P,J12,01,01*%
%TO.N,+3V3*%
X139500000Y-78500000D03*
%TD*%
D16*
%TO.P,D1,1,K*%
%TO.N,+5V*%
X165000000Y-73420000D03*
D17*
%TO.P,D1,2,A*%
%TO.N,Net-(D1-A)*%
X165000000Y-83580000D03*
%TD*%
D18*
%TO.P,J1,1*%
%TO.N,VDC*%
X114500000Y-78825000D03*
D19*
%TO.P,J1,2*%
%TO.N,GND*%
X108500000Y-78825000D03*
D20*
%TO.P,J1,3*%
X111500000Y-83525000D03*
%TD*%
D10*
%TO.P,J6,01,01*%
%TO.N,+3V3*%
X128500000Y-78500000D03*
%TD*%
%TO.P,J11,01,01*%
%TO.N,GND*%
X139500000Y-85500000D03*
%TD*%
D21*
%TO.P,R1,1*%
%TO.N,/IO4Bomba*%
X147000000Y-84000000D03*
%TO.P,R1,2*%
%TO.N,Net-(Q1-B)*%
X147000000Y-73000000D03*
%TD*%
D22*
%TO.P,U1,1,3V3*%
%TO.N,+3V3*%
X133650000Y-120200000D03*
D23*
%TO.P,U1,2,EN*%
%TO.N,unconnected-(U1-EN-Pad2)*%
X136190000Y-120200000D03*
%TO.P,U1,3,SENSOR_VP*%
%TO.N,unconnected-(U1-SENSOR_VP-Pad3)*%
X138730000Y-120200000D03*
%TO.P,U1,4,SENSOR_VN*%
%TO.N,unconnected-(U1-SENSOR_VN-Pad4)*%
X141270000Y-120200000D03*
%TO.P,U1,5,IO34*%
%TO.N,unconnected-(U1-IO34-Pad5)*%
X143810000Y-120200000D03*
%TO.P,U1,6,IO35*%
%TO.N,unconnected-(U1-IO35-Pad6)*%
X146350000Y-120200000D03*
%TO.P,U1,7,IO32*%
%TO.N,unconnected-(U1-IO32-Pad7)*%
X148890000Y-120200000D03*
%TO.P,U1,8,IO33*%
%TO.N,unconnected-(U1-IO33-Pad8)*%
X151430000Y-120200000D03*
%TO.P,U1,9,IO25*%
%TO.N,unconnected-(U1-IO25-Pad9)*%
X153970000Y-120200000D03*
%TO.P,U1,10,IO26*%
%TO.N,unconnected-(U1-IO26-Pad10)*%
X156510000Y-120200000D03*
%TO.P,U1,11,IO27*%
%TO.N,unconnected-(U1-IO27-Pad11)*%
X159050000Y-120200000D03*
%TO.P,U1,12,IO14*%
%TO.N,unconnected-(U1-IO14-Pad12)*%
X161590000Y-120200000D03*
%TO.P,U1,13,IO12*%
%TO.N,unconnected-(U1-IO12-Pad13)*%
X164130000Y-120200000D03*
%TO.P,U1,14,GND1*%
%TO.N,GND*%
X166670000Y-120200000D03*
%TO.P,U1,15,IO13*%
%TO.N,/IO26DHT22*%
X169210000Y-120200000D03*
%TO.P,U1,16,SD2*%
%TO.N,unconnected-(U1-SD2-Pad16)*%
X171750000Y-120200000D03*
%TO.P,U1,17,SD3*%
%TO.N,unconnected-(U1-SD3-Pad17)*%
X174290000Y-120200000D03*
%TO.P,U1,18,CMD*%
%TO.N,unconnected-(U1-CMD-Pad18)*%
X176830000Y-120200000D03*
%TO.P,U1,19,EXT_5V*%
%TO.N,+5V*%
X179370000Y-120200000D03*
%TO.P,U1,20,CLK*%
%TO.N,unconnected-(U1-CLK-Pad20)*%
X179370000Y-94800000D03*
%TO.P,U1,21,SD0*%
%TO.N,unconnected-(U1-SD0-Pad21)*%
X176830000Y-94800000D03*
%TO.P,U1,22,SD1*%
%TO.N,unconnected-(U1-SD1-Pad22)*%
X174290000Y-94800000D03*
%TO.P,U1,23,IO15*%
%TO.N,/IO4Bomba*%
X171750000Y-94800000D03*
%TO.P,U1,24,IO2*%
%TO.N,unconnected-(U1-IO2-Pad24)*%
X169210000Y-94800000D03*
%TO.P,U1,25,IO0*%
%TO.N,unconnected-(U1-IO0-Pad25)*%
X166670000Y-94800000D03*
%TO.P,U1,26,IO4*%
%TO.N,/SensorTempData*%
X164130000Y-94800000D03*
%TO.P,U1,27,IO16*%
%TO.N,unconnected-(U1-IO16-Pad27)*%
X161590000Y-94800000D03*
%TO.P,U1,28,IO17*%
%TO.N,unconnected-(U1-IO17-Pad28)*%
X159050000Y-94800000D03*
%TO.P,U1,29,IO5*%
%TO.N,unconnected-(U1-IO5-Pad29)*%
X156510000Y-94800000D03*
%TO.P,U1,30,IO18*%
%TO.N,unconnected-(U1-IO18-Pad30)*%
X153970000Y-94800000D03*
%TO.P,U1,31,IO19*%
%TO.N,unconnected-(U1-IO19-Pad31)*%
X151430000Y-94800000D03*
%TO.P,U1,32,GND2*%
%TO.N,GND*%
X148890000Y-94800000D03*
%TO.P,U1,33,IO21*%
%TO.N,unconnected-(U1-IO21-Pad33)*%
X146350000Y-94800000D03*
%TO.P,U1,34,RXD0*%
%TO.N,unconnected-(U1-RXD0-Pad34)*%
X143810000Y-94800000D03*
%TO.P,U1,35,TXD0*%
%TO.N,unconnected-(U1-TXD0-Pad35)*%
X141270000Y-94800000D03*
%TO.P,U1,36,IO22*%
%TO.N,unconnected-(U1-IO22-Pad36)*%
X138730000Y-94800000D03*
%TO.P,U1,37,IO23*%
%TO.N,unconnected-(U1-IO23-Pad37)*%
X136190000Y-94800000D03*
%TO.P,U1,38,GND3*%
%TO.N,unconnected-(U1-GND3-Pad38)*%
X133650000Y-94800000D03*
%TD*%
D24*
%TO.N,+BATT*%
X117780000Y-82720000D02*
X117780000Y-73494660D01*
X175280000Y-68280000D02*
X177000000Y-70000000D01*
X109770000Y-109930000D02*
X109770000Y-90730000D01*
X109770000Y-90730000D02*
X117780000Y-82720000D01*
X122994660Y-68280000D02*
X175280000Y-68280000D01*
X117780000Y-73494660D02*
X122994660Y-68280000D01*
%TO.N,+5V*%
X114850000Y-88650000D02*
X114850000Y-109930000D01*
X176420000Y-73420000D02*
X178960000Y-75960000D01*
X165000000Y-73420000D02*
X176420000Y-73420000D01*
X119500000Y-75500000D02*
X119500000Y-84000000D01*
X178960000Y-75960000D02*
X179000000Y-75960000D01*
X119500000Y-84000000D02*
X114850000Y-88650000D01*
X124500000Y-70500000D02*
X119500000Y-75500000D01*
X179370000Y-120200000D02*
X183000000Y-116570000D01*
X183000000Y-75500000D02*
X180920000Y-73420000D01*
X165000000Y-73420000D02*
X165000000Y-71000000D01*
X165000000Y-71000000D02*
X164500000Y-70500000D01*
X164500000Y-70500000D02*
X124500000Y-70500000D01*
X183000000Y-116570000D02*
X183000000Y-75500000D01*
X180920000Y-73420000D02*
X176420000Y-73420000D01*
%TO.N,Net-(D1-A)*%
X165000000Y-83580000D02*
X157080000Y-83580000D01*
X155500000Y-82000000D02*
X155500000Y-79445000D01*
X176460000Y-83580000D02*
X179000000Y-81040000D01*
X157080000Y-83580000D02*
X155500000Y-82000000D01*
X165000000Y-83580000D02*
X176460000Y-83580000D01*
%TO.N,VDC*%
X102150000Y-75850000D02*
X102150000Y-109930000D01*
X114500000Y-78825000D02*
X111175000Y-75500000D01*
X111175000Y-75500000D02*
X102500000Y-75500000D01*
X102500000Y-75500000D02*
X102150000Y-75850000D01*
D25*
%TO.N,Net-(Q1-B)*%
X152960000Y-78960000D02*
X152960000Y-79445000D01*
X147000000Y-73000000D02*
X152960000Y-78960000D01*
%TO.N,/IO4Bomba*%
X171750000Y-94800000D02*
X171750000Y-91750000D01*
X147000000Y-90000000D02*
X147000000Y-84000000D01*
X171000000Y-91000000D02*
X148000000Y-91000000D01*
X148000000Y-91000000D02*
X147000000Y-90000000D01*
X171750000Y-91750000D02*
X171000000Y-91000000D01*
D24*
%TO.N,+3V3*%
X121500000Y-83000000D02*
X121500000Y-80500000D01*
X133650000Y-120200000D02*
X133650000Y-98650000D01*
X131500000Y-84000000D02*
X122500000Y-84000000D01*
X122500000Y-84000000D02*
X121500000Y-83000000D01*
X121500000Y-100540000D02*
X124040000Y-100540000D01*
X126200000Y-120200000D02*
X133650000Y-120200000D01*
X121500000Y-80500000D02*
X123500000Y-78500000D01*
X125000000Y-101500000D02*
X125000000Y-119000000D01*
X132000000Y-97000000D02*
X132000000Y-84500000D01*
X124040000Y-100540000D02*
X125000000Y-101500000D01*
X132000000Y-84500000D02*
X131500000Y-84000000D01*
X128500000Y-78500000D02*
X123500000Y-78500000D01*
X133650000Y-98650000D02*
X132000000Y-97000000D01*
X125000000Y-119000000D02*
X126200000Y-120200000D01*
X139500000Y-78500000D02*
X134000000Y-78500000D01*
X134000000Y-78500000D02*
X128500000Y-78500000D01*
D25*
%TO.N,/SensorTempData*%
X137500000Y-92500000D02*
X137000000Y-92000000D01*
X137000000Y-82000000D02*
X139500000Y-82000000D01*
X137000000Y-82000000D02*
X134000000Y-82000000D01*
X164130000Y-94800000D02*
X164130000Y-93630000D01*
X134000000Y-82000000D02*
X128500000Y-82000000D01*
X137000000Y-92000000D02*
X137000000Y-82000000D01*
X128500000Y-82000000D02*
X123500000Y-82000000D01*
X163000000Y-92500000D02*
X137500000Y-92500000D01*
X164130000Y-93630000D02*
X163000000Y-92500000D01*
%TO.N,/IO26DHT22*%
X119000000Y-121500000D02*
X119000000Y-107040000D01*
X120000000Y-122500000D02*
X119000000Y-121500000D01*
X169210000Y-121290000D02*
X168000000Y-122500000D01*
X168000000Y-122500000D02*
X120000000Y-122500000D01*
X169210000Y-120200000D02*
X169210000Y-121290000D01*
X119000000Y-107040000D02*
X121500000Y-104540000D01*
%TD*%
%TA.AperFunction,Conductor*%
%TO.N,GND*%
G36*
X120705703Y-83619678D02*
G01*
X120720357Y-83634730D01*
X120722859Y-83637779D01*
X120722861Y-83637782D01*
X120862218Y-83777139D01*
X120862219Y-83777139D01*
X120869286Y-83784206D01*
X120869285Y-83784206D01*
X120869289Y-83784209D01*
X121862215Y-84777137D01*
X121862219Y-84777140D01*
X122026079Y-84886628D01*
X122026085Y-84886631D01*
X122026086Y-84886632D01*
X122208165Y-84962052D01*
X122208175Y-84962054D01*
X122213995Y-84963820D01*
X122213405Y-84965763D01*
X122267081Y-84993824D01*
X122301670Y-85054532D01*
X122305000Y-85083077D01*
X122305000Y-85250000D01*
X123043893Y-85250000D01*
X123015437Y-85299288D01*
X122980000Y-85431541D01*
X122980000Y-85568459D01*
X123015437Y-85700712D01*
X123043893Y-85750000D01*
X122305000Y-85750000D01*
X122305000Y-86242844D01*
X122311401Y-86302372D01*
X122311403Y-86302379D01*
X122361645Y-86437086D01*
X122361649Y-86437093D01*
X122447809Y-86552187D01*
X122447812Y-86552190D01*
X122562906Y-86638350D01*
X122562913Y-86638354D01*
X122697620Y-86688596D01*
X122697627Y-86688598D01*
X122757155Y-86694999D01*
X122757172Y-86695000D01*
X123250000Y-86695000D01*
X123250000Y-85956106D01*
X123299288Y-85984563D01*
X123431541Y-86020000D01*
X123568459Y-86020000D01*
X123700712Y-85984563D01*
X123750000Y-85956106D01*
X123750000Y-86695000D01*
X124242828Y-86695000D01*
X124242844Y-86694999D01*
X124302372Y-86688598D01*
X124302379Y-86688596D01*
X124437086Y-86638354D01*
X124437093Y-86638350D01*
X124552187Y-86552190D01*
X124552190Y-86552187D01*
X124638350Y-86437093D01*
X124638354Y-86437086D01*
X124688596Y-86302379D01*
X124688598Y-86302372D01*
X124694999Y-86242844D01*
X124695000Y-86242827D01*
X124695000Y-85750000D01*
X123956107Y-85750000D01*
X123984563Y-85700712D01*
X124020000Y-85568459D01*
X124020000Y-85431541D01*
X123984563Y-85299288D01*
X123956107Y-85250000D01*
X124695000Y-85250000D01*
X124695000Y-85124500D01*
X124714685Y-85057461D01*
X124767489Y-85011706D01*
X124819000Y-85000500D01*
X127181000Y-85000500D01*
X127248039Y-85020185D01*
X127293794Y-85072989D01*
X127305000Y-85124500D01*
X127305000Y-85250000D01*
X128043893Y-85250000D01*
X128015437Y-85299288D01*
X127980000Y-85431541D01*
X127980000Y-85568459D01*
X128015437Y-85700712D01*
X128043893Y-85750000D01*
X127305000Y-85750000D01*
X127305000Y-86242844D01*
X127311401Y-86302372D01*
X127311403Y-86302379D01*
X127361645Y-86437086D01*
X127361649Y-86437093D01*
X127447809Y-86552187D01*
X127447812Y-86552190D01*
X127562906Y-86638350D01*
X127562913Y-86638354D01*
X127697620Y-86688596D01*
X127697627Y-86688598D01*
X127757155Y-86694999D01*
X127757172Y-86695000D01*
X128250000Y-86695000D01*
X128250000Y-85956106D01*
X128299288Y-85984563D01*
X128431541Y-86020000D01*
X128568459Y-86020000D01*
X128700712Y-85984563D01*
X128750000Y-85956106D01*
X128750000Y-86695000D01*
X129242828Y-86695000D01*
X129242844Y-86694999D01*
X129302372Y-86688598D01*
X129302379Y-86688596D01*
X129437086Y-86638354D01*
X129437093Y-86638350D01*
X129552187Y-86552190D01*
X129552190Y-86552187D01*
X129638350Y-86437093D01*
X129638354Y-86437086D01*
X129688596Y-86302379D01*
X129688598Y-86302372D01*
X129694999Y-86242844D01*
X129695000Y-86242827D01*
X129695000Y-85750000D01*
X128956107Y-85750000D01*
X128984563Y-85700712D01*
X129020000Y-85568459D01*
X129020000Y-85431541D01*
X128984563Y-85299288D01*
X128956107Y-85250000D01*
X129695000Y-85250000D01*
X129695000Y-85124500D01*
X129714685Y-85057461D01*
X129767489Y-85011706D01*
X129819000Y-85000500D01*
X130875500Y-85000500D01*
X130942539Y-85020185D01*
X130988294Y-85072989D01*
X130999500Y-85124500D01*
X130999500Y-97098541D01*
X130999500Y-97098543D01*
X130999499Y-97098543D01*
X131037947Y-97291829D01*
X131037950Y-97291839D01*
X131113364Y-97473907D01*
X131113371Y-97473920D01*
X131222859Y-97637780D01*
X131222860Y-97637781D01*
X131222861Y-97637782D01*
X131362218Y-97777139D01*
X131362219Y-97777139D01*
X131369286Y-97784206D01*
X131369285Y-97784206D01*
X131369289Y-97784209D01*
X131873399Y-98288319D01*
X131906884Y-98349642D01*
X131901900Y-98419334D01*
X131860028Y-98475267D01*
X131794564Y-98499684D01*
X131785718Y-98500000D01*
X126000000Y-98500000D01*
X126000000Y-100787217D01*
X125980315Y-100854256D01*
X125927511Y-100900011D01*
X125858353Y-100909955D01*
X125794797Y-100880930D01*
X125780149Y-100865885D01*
X125777136Y-100862214D01*
X125634686Y-100719764D01*
X125634655Y-100719735D01*
X124821479Y-99906559D01*
X124821459Y-99906537D01*
X124677785Y-99762863D01*
X124677781Y-99762860D01*
X124513920Y-99653371D01*
X124513911Y-99653366D01*
X124430683Y-99618892D01*
X124385165Y-99600038D01*
X124358500Y-99588993D01*
X124331837Y-99577949D01*
X124331833Y-99577948D01*
X124235150Y-99558717D01*
X124138543Y-99539500D01*
X124138541Y-99539500D01*
X122653577Y-99539500D01*
X122586538Y-99519815D01*
X122554308Y-99489808D01*
X122552547Y-99487455D01*
X122552542Y-99487451D01*
X122437335Y-99401206D01*
X122437328Y-99401202D01*
X122302482Y-99350908D01*
X122302483Y-99350908D01*
X122242883Y-99344501D01*
X122242881Y-99344500D01*
X122242873Y-99344500D01*
X122242864Y-99344500D01*
X120757129Y-99344500D01*
X120757123Y-99344501D01*
X120697516Y-99350908D01*
X120562671Y-99401202D01*
X120562664Y-99401206D01*
X120447455Y-99487452D01*
X120447452Y-99487455D01*
X120361206Y-99602664D01*
X120361202Y-99602671D01*
X120310908Y-99737517D01*
X120304501Y-99797116D01*
X120304500Y-99797135D01*
X120304500Y-101282870D01*
X120304501Y-101282876D01*
X120310908Y-101342483D01*
X120361202Y-101477328D01*
X120361206Y-101477335D01*
X120447452Y-101592544D01*
X120447455Y-101592547D01*
X120562664Y-101678793D01*
X120562671Y-101678797D01*
X120697517Y-101729091D01*
X120697516Y-101729091D01*
X120704444Y-101729835D01*
X120757127Y-101735500D01*
X122242872Y-101735499D01*
X122302483Y-101729091D01*
X122437331Y-101678796D01*
X122552546Y-101592546D01*
X122554308Y-101590191D01*
X122556662Y-101588429D01*
X122558820Y-101586272D01*
X122559130Y-101586582D01*
X122610240Y-101548319D01*
X122653577Y-101540500D01*
X123574218Y-101540500D01*
X123641257Y-101560185D01*
X123661899Y-101576819D01*
X123963181Y-101878101D01*
X123996666Y-101939424D01*
X123999500Y-101965782D01*
X123999500Y-119098544D01*
X124025317Y-119228334D01*
X124037946Y-119291827D01*
X124037949Y-119291837D01*
X124113364Y-119473907D01*
X124113371Y-119473920D01*
X124222859Y-119637780D01*
X124222860Y-119637781D01*
X124222861Y-119637782D01*
X124362218Y-119777139D01*
X124362219Y-119777139D01*
X124369286Y-119784206D01*
X124369285Y-119784206D01*
X124369288Y-119784208D01*
X125422860Y-120837781D01*
X125422861Y-120837782D01*
X125562218Y-120977139D01*
X125562219Y-120977140D01*
X125726079Y-121086628D01*
X125726092Y-121086635D01*
X125854833Y-121139961D01*
X125908159Y-121162049D01*
X125908164Y-121162051D01*
X125956507Y-121171667D01*
X125992745Y-121178875D01*
X126101456Y-121200500D01*
X126101459Y-121200500D01*
X126101460Y-121200500D01*
X126298540Y-121200500D01*
X132374021Y-121200500D01*
X132441060Y-121220185D01*
X132473286Y-121250187D01*
X132500000Y-121285872D01*
X132500000Y-121699500D01*
X120382940Y-121699500D01*
X120315901Y-121679815D01*
X120295259Y-121663181D01*
X119836819Y-121204741D01*
X119803334Y-121143418D01*
X119800500Y-121117060D01*
X119800500Y-107757155D01*
X120305000Y-107757155D01*
X120305000Y-108250000D01*
X121043893Y-108250000D01*
X121015437Y-108299288D01*
X120980000Y-108431541D01*
X120980000Y-108568459D01*
X121015437Y-108700712D01*
X121043893Y-108750000D01*
X120305000Y-108750000D01*
X120305000Y-109242844D01*
X120311401Y-109302372D01*
X120311403Y-109302379D01*
X120361645Y-109437086D01*
X120361649Y-109437093D01*
X120447809Y-109552187D01*
X120447812Y-109552190D01*
X120562906Y-109638350D01*
X120562913Y-109638354D01*
X120697620Y-109688596D01*
X120697627Y-109688598D01*
X120757155Y-109694999D01*
X120757172Y-109695000D01*
X121250000Y-109695000D01*
X121250000Y-108956106D01*
X121299288Y-108984563D01*
X121431541Y-109020000D01*
X121568459Y-109020000D01*
X121700712Y-108984563D01*
X121750000Y-108956106D01*
X121750000Y-109695000D01*
X122242828Y-109695000D01*
X122242844Y-109694999D01*
X122302372Y-109688598D01*
X122302379Y-109688596D01*
X122437086Y-109638354D01*
X122437093Y-109638350D01*
X122552187Y-109552190D01*
X122552190Y-109552187D01*
X122638350Y-109437093D01*
X122638354Y-109437086D01*
X122688596Y-109302379D01*
X122688598Y-109302372D01*
X122694999Y-109242844D01*
X122695000Y-109242827D01*
X122695000Y-108750000D01*
X121956107Y-108750000D01*
X121984563Y-108700712D01*
X122020000Y-108568459D01*
X122020000Y-108431541D01*
X121984563Y-108299288D01*
X121956107Y-108250000D01*
X122695000Y-108250000D01*
X122695000Y-107757172D01*
X122694999Y-107757155D01*
X122688598Y-107697627D01*
X122688596Y-107697620D01*
X122638354Y-107562913D01*
X122638350Y-107562906D01*
X122552190Y-107447812D01*
X122552187Y-107447809D01*
X122437093Y-107361649D01*
X122437086Y-107361645D01*
X122302379Y-107311403D01*
X122302372Y-107311401D01*
X122242844Y-107305000D01*
X121750000Y-107305000D01*
X121750000Y-108043893D01*
X121700712Y-108015437D01*
X121568459Y-107980000D01*
X121431541Y-107980000D01*
X121299288Y-108015437D01*
X121250000Y-108043893D01*
X121250000Y-107305000D01*
X120757155Y-107305000D01*
X120697627Y-107311401D01*
X120697620Y-107311403D01*
X120562913Y-107361645D01*
X120562906Y-107361649D01*
X120447812Y-107447809D01*
X120447809Y-107447812D01*
X120361649Y-107562906D01*
X120361645Y-107562913D01*
X120311403Y-107697620D01*
X120311401Y-107697627D01*
X120305000Y-107757155D01*
X119800500Y-107757155D01*
X119800500Y-107422939D01*
X119820185Y-107355900D01*
X119836814Y-107335263D01*
X121400259Y-105771817D01*
X121461582Y-105738333D01*
X121487940Y-105735499D01*
X122242871Y-105735499D01*
X122242872Y-105735499D01*
X122302483Y-105729091D01*
X122437331Y-105678796D01*
X122552546Y-105592546D01*
X122638796Y-105477331D01*
X122689091Y-105342483D01*
X122695500Y-105282873D01*
X122695499Y-103797128D01*
X122689091Y-103737517D01*
X122638796Y-103602669D01*
X122638795Y-103602668D01*
X122638793Y-103602664D01*
X122552547Y-103487455D01*
X122552544Y-103487452D01*
X122437335Y-103401206D01*
X122437328Y-103401202D01*
X122302482Y-103350908D01*
X122302483Y-103350908D01*
X122242883Y-103344501D01*
X122242881Y-103344500D01*
X122242873Y-103344500D01*
X122242864Y-103344500D01*
X120757129Y-103344500D01*
X120757123Y-103344501D01*
X120697516Y-103350908D01*
X120562671Y-103401202D01*
X120562664Y-103401206D01*
X120447455Y-103487452D01*
X120447452Y-103487455D01*
X120361206Y-103602664D01*
X120361202Y-103602671D01*
X120310908Y-103737517D01*
X120304501Y-103797116D01*
X120304501Y-103797123D01*
X120304500Y-103797135D01*
X120304500Y-104552059D01*
X120284815Y-104619098D01*
X120268180Y-104639740D01*
X118489711Y-106418211D01*
X118433960Y-106473962D01*
X118378209Y-106529712D01*
X118290609Y-106660814D01*
X118290602Y-106660827D01*
X118230264Y-106806498D01*
X118230261Y-106806510D01*
X118199500Y-106961153D01*
X118199500Y-121578846D01*
X118230261Y-121733489D01*
X118230264Y-121733501D01*
X118290602Y-121879172D01*
X118290609Y-121879185D01*
X118378210Y-122010288D01*
X118378213Y-122010292D01*
X119489707Y-123121786D01*
X119489711Y-123121789D01*
X119620814Y-123209390D01*
X119620818Y-123209392D01*
X119620821Y-123209394D01*
X119766503Y-123269738D01*
X119921153Y-123300499D01*
X119921157Y-123300500D01*
X132500000Y-123300500D01*
X132500000Y-123999500D01*
X101124500Y-123999500D01*
X101057461Y-123979815D01*
X101011706Y-123927011D01*
X101000500Y-123875500D01*
X101000500Y-120897648D01*
X102699500Y-120897648D01*
X102699500Y-121102351D01*
X102731522Y-121304534D01*
X102794781Y-121499223D01*
X102835350Y-121578842D01*
X102886798Y-121679815D01*
X102887715Y-121681613D01*
X103008028Y-121847213D01*
X103152786Y-121991971D01*
X103307749Y-122104556D01*
X103318390Y-122112287D01*
X103434607Y-122171503D01*
X103500776Y-122205218D01*
X103500778Y-122205218D01*
X103500781Y-122205220D01*
X103605137Y-122239127D01*
X103695465Y-122268477D01*
X103796557Y-122284488D01*
X103897648Y-122300500D01*
X103897649Y-122300500D01*
X104102351Y-122300500D01*
X104102352Y-122300500D01*
X104304534Y-122268477D01*
X104499219Y-122205220D01*
X104681610Y-122112287D01*
X104774590Y-122044732D01*
X104847213Y-121991971D01*
X104847215Y-121991968D01*
X104847219Y-121991966D01*
X104991966Y-121847219D01*
X104991968Y-121847215D01*
X104991971Y-121847213D01*
X105099289Y-121699500D01*
X105112287Y-121681610D01*
X105205220Y-121499219D01*
X105268477Y-121304534D01*
X105300500Y-121102352D01*
X105300500Y-120897648D01*
X105268477Y-120695466D01*
X105248661Y-120634480D01*
X105205218Y-120500776D01*
X105164361Y-120420591D01*
X105112287Y-120318390D01*
X105029046Y-120203817D01*
X104991971Y-120152786D01*
X104847213Y-120008028D01*
X104681613Y-119887715D01*
X104681612Y-119887714D01*
X104681610Y-119887713D01*
X104624653Y-119858691D01*
X104499223Y-119794781D01*
X104304534Y-119731522D01*
X104129995Y-119703878D01*
X104102352Y-119699500D01*
X103897648Y-119699500D01*
X103873329Y-119703351D01*
X103695465Y-119731522D01*
X103500776Y-119794781D01*
X103318386Y-119887715D01*
X103152786Y-120008028D01*
X103008028Y-120152786D01*
X102887715Y-120318386D01*
X102794781Y-120500776D01*
X102731522Y-120695465D01*
X102699500Y-120897648D01*
X101000500Y-120897648D01*
X101000500Y-110865308D01*
X101020185Y-110798269D01*
X101072989Y-110752514D01*
X101142147Y-110742570D01*
X101205703Y-110771595D01*
X101212181Y-110777627D01*
X101335378Y-110900824D01*
X101335384Y-110900829D01*
X101516333Y-111027531D01*
X101516335Y-111027532D01*
X101516338Y-111027534D01*
X101716550Y-111120894D01*
X101929932Y-111178070D01*
X102087123Y-111191822D01*
X102149998Y-111197323D01*
X102150000Y-111197323D01*
X102150002Y-111197323D01*
X102205017Y-111192509D01*
X102370068Y-111178070D01*
X102583450Y-111120894D01*
X102783662Y-111027534D01*
X102964620Y-110900826D01*
X103120826Y-110744620D01*
X103247534Y-110563662D01*
X103307894Y-110434218D01*
X103354066Y-110381779D01*
X103421259Y-110362627D01*
X103488141Y-110382843D01*
X103532658Y-110434219D01*
X103592898Y-110563405D01*
X103592901Y-110563411D01*
X103638258Y-110628187D01*
X103638258Y-110628188D01*
X104309000Y-109957446D01*
X104309000Y-109980160D01*
X104334964Y-110077061D01*
X104385124Y-110163940D01*
X104456060Y-110234876D01*
X104542939Y-110285036D01*
X104639840Y-110311000D01*
X104662553Y-110311000D01*
X103991810Y-110981740D01*
X104056590Y-111027099D01*
X104056592Y-111027100D01*
X104256715Y-111120419D01*
X104256729Y-111120424D01*
X104470013Y-111177573D01*
X104470023Y-111177575D01*
X104689999Y-111196821D01*
X104690001Y-111196821D01*
X104909976Y-111177575D01*
X104909986Y-111177573D01*
X105123270Y-111120424D01*
X105123284Y-111120419D01*
X105323407Y-111027100D01*
X105323417Y-111027094D01*
X105388188Y-110981741D01*
X104717448Y-110311000D01*
X104740160Y-110311000D01*
X104837061Y-110285036D01*
X104923940Y-110234876D01*
X104994876Y-110163940D01*
X105045036Y-110077061D01*
X105071000Y-109980160D01*
X105071000Y-109957447D01*
X105741741Y-110628188D01*
X105787094Y-110563417D01*
X105787100Y-110563407D01*
X105847618Y-110433627D01*
X105893790Y-110381187D01*
X105960983Y-110362035D01*
X106027865Y-110382251D01*
X106072382Y-110433627D01*
X106132898Y-110563405D01*
X106132901Y-110563411D01*
X106178258Y-110628187D01*
X106178258Y-110628188D01*
X106849000Y-109957446D01*
X106849000Y-109980160D01*
X106874964Y-110077061D01*
X106925124Y-110163940D01*
X106996060Y-110234876D01*
X107082939Y-110285036D01*
X107179840Y-110311000D01*
X107202553Y-110311000D01*
X106531810Y-110981740D01*
X106596590Y-111027099D01*
X106596592Y-111027100D01*
X106796715Y-111120419D01*
X106796729Y-111120424D01*
X107010013Y-111177573D01*
X107010023Y-111177575D01*
X107229999Y-111196821D01*
X107230001Y-111196821D01*
X107449976Y-111177575D01*
X107449986Y-111177573D01*
X107663270Y-111120424D01*
X107663284Y-111120419D01*
X107863407Y-111027100D01*
X107863417Y-111027094D01*
X107928188Y-110981741D01*
X107257448Y-110311000D01*
X107280160Y-110311000D01*
X107377061Y-110285036D01*
X107463940Y-110234876D01*
X107534876Y-110163940D01*
X107585036Y-110077061D01*
X107611000Y-109980160D01*
X107611000Y-109957447D01*
X108281741Y-110628188D01*
X108327094Y-110563417D01*
X108327095Y-110563416D01*
X108387340Y-110434219D01*
X108433512Y-110381780D01*
X108500706Y-110362627D01*
X108567587Y-110382842D01*
X108612105Y-110434218D01*
X108672466Y-110563662D01*
X108672468Y-110563666D01*
X108799170Y-110744615D01*
X108799175Y-110744621D01*
X108955378Y-110900824D01*
X108955384Y-110900829D01*
X109136333Y-111027531D01*
X109136335Y-111027532D01*
X109136338Y-111027534D01*
X109336550Y-111120894D01*
X109549932Y-111178070D01*
X109707123Y-111191822D01*
X109769998Y-111197323D01*
X109770000Y-111197323D01*
X109770002Y-111197323D01*
X109825017Y-111192509D01*
X109990068Y-111178070D01*
X110203450Y-111120894D01*
X110403662Y-111027534D01*
X110584620Y-110900826D01*
X110740826Y-110744620D01*
X110867534Y-110563662D01*
X110927894Y-110434218D01*
X110974066Y-110381779D01*
X111041259Y-110362627D01*
X111108141Y-110382843D01*
X111152658Y-110434219D01*
X111212898Y-110563405D01*
X111212901Y-110563411D01*
X111258258Y-110628187D01*
X111258258Y-110628188D01*
X111929000Y-109957446D01*
X111929000Y-109980160D01*
X111954964Y-110077061D01*
X112005124Y-110163940D01*
X112076060Y-110234876D01*
X112162939Y-110285036D01*
X112259840Y-110311000D01*
X112282553Y-110311000D01*
X111611810Y-110981740D01*
X111676590Y-111027099D01*
X111676592Y-111027100D01*
X111876715Y-111120419D01*
X111876729Y-111120424D01*
X112090013Y-111177573D01*
X112090023Y-111177575D01*
X112309999Y-111196821D01*
X112310001Y-111196821D01*
X112529976Y-111177575D01*
X112529986Y-111177573D01*
X112743270Y-111120424D01*
X112743284Y-111120419D01*
X112943407Y-111027100D01*
X112943417Y-111027094D01*
X113008188Y-110981741D01*
X112337448Y-110311000D01*
X112360160Y-110311000D01*
X112457061Y-110285036D01*
X112543940Y-110234876D01*
X112614876Y-110163940D01*
X112665036Y-110077061D01*
X112691000Y-109980160D01*
X112691000Y-109957447D01*
X113361741Y-110628188D01*
X113407094Y-110563417D01*
X113407095Y-110563416D01*
X113467340Y-110434219D01*
X113513512Y-110381780D01*
X113580706Y-110362627D01*
X113647587Y-110382842D01*
X113692105Y-110434218D01*
X113752466Y-110563662D01*
X113752468Y-110563666D01*
X113879170Y-110744615D01*
X113879175Y-110744621D01*
X114035378Y-110900824D01*
X114035384Y-110900829D01*
X114216333Y-111027531D01*
X114216335Y-111027532D01*
X114216338Y-111027534D01*
X114416550Y-111120894D01*
X114629932Y-111178070D01*
X114787123Y-111191822D01*
X114849998Y-111197323D01*
X114850000Y-111197323D01*
X114850002Y-111197323D01*
X114905017Y-111192509D01*
X115070068Y-111178070D01*
X115283450Y-111120894D01*
X115483662Y-111027534D01*
X115664620Y-110900826D01*
X115820826Y-110744620D01*
X115947534Y-110563662D01*
X116040894Y-110363450D01*
X116098070Y-110150068D01*
X116117323Y-109930000D01*
X116098070Y-109709932D01*
X116040894Y-109496550D01*
X115947534Y-109296339D01*
X115872925Y-109189785D01*
X115850598Y-109123578D01*
X115850500Y-109118662D01*
X115850500Y-93397648D01*
X126699500Y-93397648D01*
X126699500Y-93602351D01*
X126731522Y-93804534D01*
X126794781Y-93999223D01*
X126887715Y-94181613D01*
X127008028Y-94347213D01*
X127152786Y-94491971D01*
X127273137Y-94579409D01*
X127318390Y-94612287D01*
X127434607Y-94671503D01*
X127500776Y-94705218D01*
X127500778Y-94705218D01*
X127500781Y-94705220D01*
X127605137Y-94739127D01*
X127695465Y-94768477D01*
X127796557Y-94784488D01*
X127897648Y-94800500D01*
X127897649Y-94800500D01*
X128102351Y-94800500D01*
X128102352Y-94800500D01*
X128304534Y-94768477D01*
X128499219Y-94705220D01*
X128681610Y-94612287D01*
X128774590Y-94544732D01*
X128847213Y-94491971D01*
X128847215Y-94491968D01*
X128847219Y-94491966D01*
X128991966Y-94347219D01*
X128991968Y-94347215D01*
X128991971Y-94347213D01*
X129044732Y-94274590D01*
X129112287Y-94181610D01*
X129205220Y-93999219D01*
X129268477Y-93804534D01*
X129300500Y-93602352D01*
X129300500Y-93397648D01*
X129296594Y-93372989D01*
X129268477Y-93195465D01*
X129207634Y-93008211D01*
X129205220Y-93000781D01*
X129205218Y-93000778D01*
X129205218Y-93000776D01*
X129171503Y-92934607D01*
X129112287Y-92818390D01*
X129104556Y-92807749D01*
X128991971Y-92652786D01*
X128847213Y-92508028D01*
X128681613Y-92387715D01*
X128681612Y-92387714D01*
X128681610Y-92387713D01*
X128624653Y-92358691D01*
X128499223Y-92294781D01*
X128304534Y-92231522D01*
X128129995Y-92203878D01*
X128102352Y-92199500D01*
X127897648Y-92199500D01*
X127873329Y-92203351D01*
X127695465Y-92231522D01*
X127500776Y-92294781D01*
X127318386Y-92387715D01*
X127152786Y-92508028D01*
X127008028Y-92652786D01*
X126887715Y-92818386D01*
X126794781Y-93000776D01*
X126731522Y-93195465D01*
X126699500Y-93397648D01*
X115850500Y-93397648D01*
X115850500Y-89115781D01*
X115870185Y-89048742D01*
X115886814Y-89028105D01*
X120137778Y-84777141D01*
X120137782Y-84777139D01*
X120277139Y-84637782D01*
X120386632Y-84473914D01*
X120435001Y-84357140D01*
X120439961Y-84345166D01*
X120439961Y-84345165D01*
X120444111Y-84335146D01*
X120462051Y-84291836D01*
X120500500Y-84098540D01*
X120500500Y-83901460D01*
X120500500Y-83901459D01*
X120500500Y-83713391D01*
X120520185Y-83646352D01*
X120572989Y-83600597D01*
X120642147Y-83590653D01*
X120705703Y-83619678D01*
G37*
%TD.AperFunction*%
%TA.AperFunction,Conductor*%
G36*
X183942539Y-66520185D02*
G01*
X183988294Y-66572989D01*
X183999500Y-66624500D01*
X183999500Y-74786608D01*
X183979815Y-74853647D01*
X183927011Y-74899402D01*
X183857853Y-74909346D01*
X183794297Y-74880321D01*
X183779648Y-74865275D01*
X183777134Y-74862212D01*
X183634686Y-74719764D01*
X183634655Y-74719735D01*
X181701479Y-72786559D01*
X181701459Y-72786537D01*
X181557785Y-72642863D01*
X181557781Y-72642860D01*
X181393920Y-72533371D01*
X181393911Y-72533366D01*
X181310683Y-72498892D01*
X181265165Y-72480038D01*
X181238500Y-72468993D01*
X181211837Y-72457949D01*
X181211833Y-72457947D01*
X181051042Y-72425965D01*
X181051041Y-72425964D01*
X181034791Y-72422732D01*
X181018542Y-72419500D01*
X181018541Y-72419500D01*
X176518541Y-72419500D01*
X166724499Y-72419500D01*
X166657460Y-72399815D01*
X166611705Y-72347011D01*
X166600499Y-72295500D01*
X166600499Y-72272129D01*
X166600498Y-72272123D01*
X166600497Y-72272116D01*
X166594091Y-72212517D01*
X166543796Y-72077669D01*
X166543795Y-72077668D01*
X166543793Y-72077664D01*
X166457547Y-71962455D01*
X166457544Y-71962452D01*
X166342335Y-71876206D01*
X166342328Y-71876202D01*
X166207482Y-71825908D01*
X166207483Y-71825908D01*
X166147883Y-71819501D01*
X166147881Y-71819500D01*
X166147873Y-71819500D01*
X166147865Y-71819500D01*
X166124500Y-71819500D01*
X166057461Y-71799815D01*
X166011706Y-71747011D01*
X166000500Y-71695500D01*
X166000500Y-70901456D01*
X165962052Y-70708170D01*
X165962051Y-70708169D01*
X165962051Y-70708165D01*
X165962049Y-70708160D01*
X165886635Y-70526092D01*
X165886628Y-70526079D01*
X165777139Y-70362218D01*
X165777136Y-70362214D01*
X165634686Y-70219764D01*
X165634655Y-70219735D01*
X165281479Y-69866559D01*
X165281459Y-69866537D01*
X165137785Y-69722863D01*
X165137781Y-69722860D01*
X164973920Y-69613371D01*
X164973911Y-69613366D01*
X164890683Y-69578892D01*
X164845165Y-69560038D01*
X164818500Y-69548993D01*
X164791837Y-69537949D01*
X164791833Y-69537948D01*
X164732354Y-69526117D01*
X164670443Y-69493733D01*
X164635869Y-69433017D01*
X164639608Y-69363247D01*
X164680474Y-69306575D01*
X164745492Y-69280994D01*
X164756545Y-69280500D01*
X171721000Y-69280500D01*
X171788039Y-69300185D01*
X171833794Y-69352989D01*
X171845000Y-69404500D01*
X171845000Y-69750000D01*
X172583893Y-69750000D01*
X172555437Y-69799288D01*
X172520000Y-69931541D01*
X172520000Y-70068459D01*
X172555437Y-70200712D01*
X172583893Y-70250000D01*
X171845000Y-70250000D01*
X171845000Y-70742844D01*
X171851401Y-70802372D01*
X171851403Y-70802379D01*
X171901645Y-70937086D01*
X171901649Y-70937093D01*
X171987809Y-71052187D01*
X171987812Y-71052190D01*
X172102906Y-71138350D01*
X172102913Y-71138354D01*
X172237620Y-71188596D01*
X172237627Y-71188598D01*
X172297155Y-71194999D01*
X172297172Y-71195000D01*
X172790000Y-71195000D01*
X172790000Y-70456106D01*
X172839288Y-70484563D01*
X172971541Y-70520000D01*
X173108459Y-70520000D01*
X173240712Y-70484563D01*
X173290000Y-70456106D01*
X173290000Y-71195000D01*
X173782828Y-71195000D01*
X173782844Y-71194999D01*
X173842372Y-71188598D01*
X173842379Y-71188596D01*
X173977086Y-71138354D01*
X173977093Y-71138350D01*
X174092187Y-71052190D01*
X174092190Y-71052187D01*
X174178350Y-70937093D01*
X174178354Y-70937086D01*
X174228596Y-70802379D01*
X174228598Y-70802372D01*
X174234999Y-70742844D01*
X174235000Y-70742827D01*
X174235000Y-70250000D01*
X173496107Y-70250000D01*
X173524563Y-70200712D01*
X173560000Y-70068459D01*
X173560000Y-69931541D01*
X173524563Y-69799288D01*
X173496107Y-69750000D01*
X174235000Y-69750000D01*
X174235000Y-69404500D01*
X174254685Y-69337461D01*
X174307489Y-69291706D01*
X174359000Y-69280500D01*
X174814218Y-69280500D01*
X174881257Y-69300185D01*
X174901899Y-69316819D01*
X175768181Y-70183102D01*
X175801666Y-70244425D01*
X175804500Y-70270783D01*
X175804500Y-70742870D01*
X175804501Y-70742876D01*
X175810908Y-70802483D01*
X175861202Y-70937328D01*
X175861206Y-70937335D01*
X175947452Y-71052544D01*
X175947455Y-71052547D01*
X176062664Y-71138793D01*
X176062671Y-71138797D01*
X176197517Y-71189091D01*
X176197516Y-71189091D01*
X176204444Y-71189835D01*
X176257127Y-71195500D01*
X177742872Y-71195499D01*
X177802483Y-71189091D01*
X177937331Y-71138796D01*
X178052546Y-71052546D01*
X178138796Y-70937331D01*
X178189091Y-70802483D01*
X178195500Y-70742873D01*
X178195499Y-69257128D01*
X178189091Y-69197517D01*
X178138796Y-69062669D01*
X178138795Y-69062668D01*
X178138793Y-69062664D01*
X178052547Y-68947455D01*
X178052544Y-68947452D01*
X177937335Y-68861206D01*
X177937328Y-68861202D01*
X177802482Y-68810908D01*
X177802483Y-68810908D01*
X177742883Y-68804501D01*
X177742881Y-68804500D01*
X177742873Y-68804500D01*
X177742865Y-68804500D01*
X177270783Y-68804500D01*
X177203744Y-68784815D01*
X177183102Y-68768181D01*
X176064209Y-67649289D01*
X176064206Y-67649285D01*
X176064206Y-67649286D01*
X176057139Y-67642219D01*
X176057139Y-67642218D01*
X175917782Y-67502861D01*
X175917781Y-67502860D01*
X175917780Y-67502859D01*
X175753920Y-67393371D01*
X175753911Y-67393366D01*
X175681315Y-67363296D01*
X175625165Y-67340038D01*
X175571836Y-67317949D01*
X175571832Y-67317948D01*
X175571828Y-67317946D01*
X175475188Y-67298724D01*
X175378544Y-67279500D01*
X175378541Y-67279500D01*
X122896119Y-67279500D01*
X122896115Y-67279500D01*
X122799472Y-67298724D01*
X122702827Y-67317947D01*
X122702821Y-67317949D01*
X122649494Y-67340037D01*
X122649494Y-67340038D01*
X122603975Y-67358892D01*
X122520749Y-67393366D01*
X122520739Y-67393371D01*
X122356879Y-67502859D01*
X122287200Y-67572538D01*
X122217521Y-67642218D01*
X122217518Y-67642221D01*
X117142221Y-72717518D01*
X117142218Y-72717521D01*
X117077521Y-72782218D01*
X117002859Y-72856879D01*
X116893369Y-73020742D01*
X116848874Y-73128165D01*
X116817950Y-73202821D01*
X116817947Y-73202830D01*
X116811847Y-73233499D01*
X116779500Y-73396114D01*
X116779500Y-82254217D01*
X116759815Y-82321256D01*
X116743181Y-82341898D01*
X109132220Y-89952859D01*
X109132218Y-89952861D01*
X109062538Y-90022540D01*
X108992859Y-90092219D01*
X108883371Y-90256079D01*
X108883364Y-90256092D01*
X108807950Y-90438160D01*
X108807947Y-90438170D01*
X108769500Y-90631456D01*
X108769500Y-109118662D01*
X108749815Y-109185701D01*
X108747075Y-109189785D01*
X108717649Y-109231811D01*
X108672466Y-109296339D01*
X108667080Y-109307888D01*
X108612105Y-109425782D01*
X108565932Y-109478221D01*
X108498738Y-109497372D01*
X108431857Y-109477156D01*
X108387341Y-109425780D01*
X108327098Y-109296589D01*
X108327097Y-109296587D01*
X108281741Y-109231811D01*
X108281740Y-109231810D01*
X107611000Y-109902551D01*
X107611000Y-109879840D01*
X107585036Y-109782939D01*
X107534876Y-109696060D01*
X107463940Y-109625124D01*
X107377061Y-109574964D01*
X107280160Y-109549000D01*
X107257447Y-109549000D01*
X107928188Y-108878258D01*
X107863411Y-108832901D01*
X107863405Y-108832898D01*
X107663284Y-108739580D01*
X107663270Y-108739575D01*
X107449986Y-108682426D01*
X107449976Y-108682424D01*
X107230001Y-108663179D01*
X107229999Y-108663179D01*
X107010023Y-108682424D01*
X107010013Y-108682426D01*
X106796729Y-108739575D01*
X106796720Y-108739579D01*
X106596590Y-108832901D01*
X106531811Y-108878258D01*
X107202554Y-109549000D01*
X107179840Y-109549000D01*
X107082939Y-109574964D01*
X106996060Y-109625124D01*
X106925124Y-109696060D01*
X106874964Y-109782939D01*
X106849000Y-109879840D01*
X106849000Y-109902553D01*
X106178258Y-109231811D01*
X106132901Y-109296590D01*
X106072382Y-109426373D01*
X106026209Y-109478812D01*
X105959016Y-109497964D01*
X105892135Y-109477748D01*
X105847618Y-109426373D01*
X105787096Y-109296586D01*
X105741741Y-109231811D01*
X105741740Y-109231810D01*
X105071000Y-109902551D01*
X105071000Y-109879840D01*
X105045036Y-109782939D01*
X104994876Y-109696060D01*
X104923940Y-109625124D01*
X104837061Y-109574964D01*
X104740160Y-109549000D01*
X104717447Y-109549000D01*
X105388188Y-108878258D01*
X105323411Y-108832901D01*
X105323405Y-108832898D01*
X105123284Y-108739580D01*
X105123270Y-108739575D01*
X104909986Y-108682426D01*
X104909976Y-108682424D01*
X104690001Y-108663179D01*
X104689999Y-108663179D01*
X104470023Y-108682424D01*
X104470013Y-108682426D01*
X104256729Y-108739575D01*
X104256720Y-108739579D01*
X104056590Y-108832901D01*
X103991811Y-108878258D01*
X104662554Y-109549000D01*
X104639840Y-109549000D01*
X104542939Y-109574964D01*
X104456060Y-109625124D01*
X104385124Y-109696060D01*
X104334964Y-109782939D01*
X104309000Y-109879840D01*
X104309000Y-109902553D01*
X103638258Y-109231811D01*
X103592901Y-109296590D01*
X103532658Y-109425781D01*
X103486485Y-109478220D01*
X103419292Y-109497372D01*
X103352411Y-109477156D01*
X103307894Y-109425781D01*
X103292906Y-109393639D01*
X103247534Y-109296339D01*
X103172925Y-109189785D01*
X103150598Y-109123578D01*
X103150500Y-109118662D01*
X103150500Y-83275000D01*
X108769340Y-83275000D01*
X110066988Y-83275000D01*
X110034075Y-83332007D01*
X110000000Y-83459174D01*
X110000000Y-83590826D01*
X110034075Y-83717993D01*
X110066988Y-83775000D01*
X108769340Y-83775000D01*
X108790013Y-83905523D01*
X108869051Y-84148781D01*
X108869052Y-84148784D01*
X108985175Y-84376686D01*
X109135521Y-84583619D01*
X109316380Y-84764478D01*
X109523313Y-84914824D01*
X109751215Y-85030947D01*
X109751218Y-85030948D01*
X109994476Y-85109986D01*
X110247111Y-85150000D01*
X111250000Y-85150000D01*
X111250000Y-84025000D01*
X111750000Y-84025000D01*
X111750000Y-85150000D01*
X112752889Y-85150000D01*
X113005523Y-85109986D01*
X113248781Y-85030948D01*
X113248784Y-85030947D01*
X113476686Y-84914824D01*
X113683619Y-84764478D01*
X113864478Y-84583619D01*
X114014824Y-84376686D01*
X114130947Y-84148784D01*
X114130948Y-84148781D01*
X114209986Y-83905523D01*
X114230660Y-83775000D01*
X112933012Y-83775000D01*
X112965925Y-83717993D01*
X113000000Y-83590826D01*
X113000000Y-83459174D01*
X112965925Y-83332007D01*
X112933012Y-83275000D01*
X114230660Y-83275000D01*
X114209986Y-83144476D01*
X114130948Y-82901218D01*
X114130947Y-82901215D01*
X114014824Y-82673313D01*
X113864478Y-82466380D01*
X113683619Y-82285521D01*
X113476686Y-82135175D01*
X113248784Y-82019052D01*
X113248781Y-82019051D01*
X113005523Y-81940013D01*
X112752889Y-81900000D01*
X111750000Y-81900000D01*
X111750000Y-83025000D01*
X111250000Y-83025000D01*
X111250000Y-81900000D01*
X110247111Y-81900000D01*
X109994476Y-81940013D01*
X109751218Y-82019051D01*
X109751215Y-82019052D01*
X109523313Y-82135175D01*
X109316380Y-82285521D01*
X109135521Y-82466380D01*
X108985175Y-82673313D01*
X108869052Y-82901215D01*
X108869051Y-82901218D01*
X108790013Y-83144476D01*
X108769340Y-83275000D01*
X103150500Y-83275000D01*
X103150500Y-76624500D01*
X103170185Y-76557461D01*
X103222989Y-76511706D01*
X103274500Y-76500500D01*
X107119513Y-76500500D01*
X107186552Y-76520185D01*
X107232307Y-76572989D01*
X107242251Y-76642147D01*
X107219831Y-76697386D01*
X107110175Y-76848313D01*
X106994052Y-77076215D01*
X106994051Y-77076218D01*
X106915013Y-77319476D01*
X106875000Y-77572110D01*
X106875000Y-78575000D01*
X108000000Y-78575000D01*
X108000000Y-79075000D01*
X106875000Y-79075000D01*
X106875000Y-80077889D01*
X106915013Y-80330523D01*
X106994051Y-80573781D01*
X106994052Y-80573784D01*
X107110175Y-80801686D01*
X107260521Y-81008619D01*
X107441380Y-81189478D01*
X107648313Y-81339824D01*
X107876215Y-81455947D01*
X107876218Y-81455948D01*
X108119475Y-81534986D01*
X108250000Y-81555659D01*
X108250000Y-80258012D01*
X108307007Y-80290925D01*
X108434174Y-80325000D01*
X108565826Y-80325000D01*
X108692993Y-80290925D01*
X108750000Y-80258012D01*
X108750000Y-81555658D01*
X108880522Y-81534986D01*
X108880525Y-81534986D01*
X109123781Y-81455948D01*
X109123784Y-81455947D01*
X109351686Y-81339824D01*
X109558619Y-81189478D01*
X109739478Y-81008619D01*
X109889824Y-80801686D01*
X110005947Y-80573784D01*
X110005948Y-80573781D01*
X110084986Y-80330523D01*
X110125000Y-80077889D01*
X110125000Y-79075000D01*
X109000000Y-79075000D01*
X109000000Y-78575000D01*
X110125000Y-78575000D01*
X110125000Y-77572110D01*
X110084986Y-77319476D01*
X110005948Y-77076218D01*
X110005947Y-77076215D01*
X109889824Y-76848313D01*
X109780169Y-76697386D01*
X109756689Y-76631579D01*
X109772514Y-76563525D01*
X109822620Y-76514830D01*
X109880487Y-76500500D01*
X110709218Y-76500500D01*
X110776257Y-76520185D01*
X110796899Y-76536819D01*
X112713181Y-78453101D01*
X112746666Y-78514424D01*
X112749500Y-78540782D01*
X112749500Y-80189741D01*
X112771144Y-80354135D01*
X112779452Y-80417238D01*
X112817507Y-80559264D01*
X112838842Y-80638887D01*
X112926650Y-80850876D01*
X112926657Y-80850890D01*
X112981280Y-80945500D01*
X113035842Y-81040005D01*
X113041392Y-81049617D01*
X113181081Y-81231661D01*
X113181089Y-81231670D01*
X113343330Y-81393911D01*
X113343338Y-81393918D01*
X113525382Y-81533607D01*
X113525385Y-81533608D01*
X113525388Y-81533611D01*
X113724112Y-81648344D01*
X113724117Y-81648346D01*
X113724123Y-81648349D01*
X113815480Y-81686190D01*
X113936113Y-81736158D01*
X114157762Y-81795548D01*
X114385266Y-81825500D01*
X114385273Y-81825500D01*
X114614727Y-81825500D01*
X114614734Y-81825500D01*
X114842238Y-81795548D01*
X115063887Y-81736158D01*
X115275888Y-81648344D01*
X115474612Y-81533611D01*
X115656661Y-81393919D01*
X115656665Y-81393914D01*
X115656670Y-81393911D01*
X115818911Y-81231670D01*
X115818914Y-81231665D01*
X115818919Y-81231661D01*
X115958611Y-81049612D01*
X116073344Y-80850888D01*
X116161158Y-80638887D01*
X116220548Y-80417238D01*
X116250500Y-80189734D01*
X116250500Y-77460266D01*
X116220548Y-77232762D01*
X116161158Y-77011113D01*
X116073344Y-76799112D01*
X115958611Y-76600388D01*
X115958608Y-76600385D01*
X115958607Y-76600382D01*
X115818918Y-76418338D01*
X115818911Y-76418330D01*
X115656670Y-76256089D01*
X115656661Y-76256081D01*
X115474617Y-76116392D01*
X115275890Y-76001657D01*
X115275876Y-76001650D01*
X115063887Y-75913842D01*
X115007536Y-75898743D01*
X114842238Y-75854452D01*
X114804215Y-75849446D01*
X114614741Y-75824500D01*
X114614734Y-75824500D01*
X114385266Y-75824500D01*
X114385258Y-75824500D01*
X114168715Y-75853009D01*
X114157762Y-75854452D01*
X114069502Y-75878101D01*
X113936112Y-75913842D01*
X113724123Y-76001650D01*
X113724108Y-76001657D01*
X113525388Y-76116388D01*
X113431117Y-76188725D01*
X113365948Y-76213919D01*
X113297503Y-76199880D01*
X113267950Y-76178030D01*
X111956479Y-74866559D01*
X111956459Y-74866537D01*
X111812785Y-74722863D01*
X111812781Y-74722860D01*
X111648920Y-74613371D01*
X111648911Y-74613366D01*
X111567215Y-74579527D01*
X111520165Y-74560038D01*
X111466836Y-74537949D01*
X111466832Y-74537948D01*
X111466828Y-74537946D01*
X111370188Y-74518724D01*
X111273544Y-74499500D01*
X111273541Y-74499500D01*
X102401459Y-74499500D01*
X102401455Y-74499500D01*
X102304812Y-74518724D01*
X102208167Y-74537947D01*
X102208161Y-74537949D01*
X102154834Y-74560037D01*
X102154834Y-74560038D01*
X102135919Y-74567873D01*
X102026084Y-74613368D01*
X102026083Y-74613368D01*
X101903045Y-74695579D01*
X101903046Y-74695580D01*
X101862218Y-74722859D01*
X101862215Y-74722862D01*
X101570988Y-75014091D01*
X101512220Y-75072859D01*
X101512218Y-75072861D01*
X101442538Y-75142540D01*
X101372859Y-75212219D01*
X101263371Y-75376079D01*
X101263366Y-75376088D01*
X101239061Y-75434768D01*
X101195220Y-75489171D01*
X101128926Y-75511236D01*
X101061227Y-75493957D01*
X101013616Y-75442820D01*
X101000500Y-75387315D01*
X101000500Y-66624500D01*
X101020185Y-66557461D01*
X101072989Y-66511706D01*
X101124500Y-66500500D01*
X183875500Y-66500500D01*
X183942539Y-66520185D01*
G37*
%TD.AperFunction*%
%TA.AperFunction,Conductor*%
G36*
X113813134Y-88204299D02*
G01*
X113869067Y-88246171D01*
X113893484Y-88311635D01*
X113888946Y-88352153D01*
X113889137Y-88352191D01*
X113888690Y-88354434D01*
X113888463Y-88356468D01*
X113887949Y-88358161D01*
X113849500Y-88551456D01*
X113849500Y-109118662D01*
X113829815Y-109185701D01*
X113827075Y-109189785D01*
X113797649Y-109231811D01*
X113752466Y-109296339D01*
X113747080Y-109307888D01*
X113692105Y-109425782D01*
X113645932Y-109478221D01*
X113578738Y-109497372D01*
X113511857Y-109477156D01*
X113467341Y-109425780D01*
X113407098Y-109296589D01*
X113407097Y-109296587D01*
X113361741Y-109231811D01*
X113361740Y-109231810D01*
X112691000Y-109902551D01*
X112691000Y-109879840D01*
X112665036Y-109782939D01*
X112614876Y-109696060D01*
X112543940Y-109625124D01*
X112457061Y-109574964D01*
X112360160Y-109549000D01*
X112337447Y-109549000D01*
X113008188Y-108878258D01*
X112943411Y-108832901D01*
X112943405Y-108832898D01*
X112743284Y-108739580D01*
X112743270Y-108739575D01*
X112529986Y-108682426D01*
X112529976Y-108682424D01*
X112310001Y-108663179D01*
X112309999Y-108663179D01*
X112090023Y-108682424D01*
X112090013Y-108682426D01*
X111876729Y-108739575D01*
X111876720Y-108739579D01*
X111676590Y-108832901D01*
X111611811Y-108878258D01*
X112282554Y-109549000D01*
X112259840Y-109549000D01*
X112162939Y-109574964D01*
X112076060Y-109625124D01*
X112005124Y-109696060D01*
X111954964Y-109782939D01*
X111929000Y-109879840D01*
X111929000Y-109902553D01*
X111258258Y-109231811D01*
X111212901Y-109296590D01*
X111152658Y-109425781D01*
X111106485Y-109478220D01*
X111039292Y-109497372D01*
X110972411Y-109477156D01*
X110927894Y-109425781D01*
X110912906Y-109393639D01*
X110867534Y-109296339D01*
X110792925Y-109189785D01*
X110770598Y-109123578D01*
X110770500Y-109118662D01*
X110770500Y-91195782D01*
X110790185Y-91128743D01*
X110806819Y-91108101D01*
X112210179Y-89704741D01*
X113682121Y-88232798D01*
X113743442Y-88199315D01*
X113813134Y-88204299D01*
G37*
%TD.AperFunction*%
%TA.AperFunction,Conductor*%
G36*
X132791113Y-82820185D02*
G01*
X132836868Y-82872989D01*
X132840256Y-82881167D01*
X132861202Y-82937328D01*
X132861206Y-82937335D01*
X132947452Y-83052544D01*
X132947454Y-83052546D01*
X133062664Y-83138793D01*
X133062671Y-83138797D01*
X133197517Y-83189091D01*
X133197516Y-83189091D01*
X133204444Y-83189835D01*
X133257127Y-83195500D01*
X134742872Y-83195499D01*
X134802483Y-83189091D01*
X134937331Y-83138796D01*
X135052546Y-83052546D01*
X135138796Y-82937331D01*
X135159744Y-82881167D01*
X135201615Y-82825233D01*
X135267079Y-82800816D01*
X135275926Y-82800500D01*
X136075500Y-82800500D01*
X136142539Y-82820185D01*
X136188294Y-82872989D01*
X136199500Y-82924500D01*
X136199500Y-92078846D01*
X136230261Y-92233489D01*
X136230264Y-92233501D01*
X136290602Y-92379172D01*
X136290609Y-92379185D01*
X136378210Y-92510288D01*
X136378213Y-92510292D01*
X136989707Y-93121786D01*
X136989711Y-93121789D01*
X137120814Y-93209390D01*
X137120818Y-93209392D01*
X137120821Y-93209394D01*
X137266503Y-93269738D01*
X137421153Y-93300499D01*
X137421157Y-93300500D01*
X137421158Y-93300500D01*
X138509313Y-93300500D01*
X138576352Y-93320185D01*
X138622107Y-93372989D01*
X138632051Y-93442147D01*
X138605630Y-93500000D01*
X133000500Y-93500000D01*
X133000500Y-86793668D01*
X133020185Y-86726629D01*
X133072989Y-86680874D01*
X133142147Y-86670930D01*
X133167836Y-86677487D01*
X133197622Y-86688597D01*
X133197627Y-86688598D01*
X133257155Y-86694999D01*
X133257172Y-86695000D01*
X133750000Y-86695000D01*
X133750000Y-85956106D01*
X133799288Y-85984563D01*
X133931541Y-86020000D01*
X134068459Y-86020000D01*
X134200712Y-85984563D01*
X134250000Y-85956106D01*
X134250000Y-86695000D01*
X134742828Y-86695000D01*
X134742844Y-86694999D01*
X134802372Y-86688598D01*
X134802379Y-86688596D01*
X134937086Y-86638354D01*
X134937093Y-86638350D01*
X135052187Y-86552190D01*
X135052190Y-86552187D01*
X135138350Y-86437093D01*
X135138354Y-86437086D01*
X135188596Y-86302379D01*
X135188598Y-86302372D01*
X135194999Y-86242844D01*
X135195000Y-86242827D01*
X135195000Y-85750000D01*
X134456107Y-85750000D01*
X134484563Y-85700712D01*
X134520000Y-85568459D01*
X134520000Y-85431541D01*
X134484563Y-85299288D01*
X134456107Y-85250000D01*
X135195000Y-85250000D01*
X135195000Y-84757172D01*
X135194999Y-84757155D01*
X135188598Y-84697627D01*
X135188596Y-84697620D01*
X135138354Y-84562913D01*
X135138350Y-84562906D01*
X135052190Y-84447812D01*
X135052187Y-84447809D01*
X134937093Y-84361649D01*
X134937086Y-84361645D01*
X134802379Y-84311403D01*
X134802372Y-84311401D01*
X134742844Y-84305000D01*
X134250000Y-84305000D01*
X134250000Y-85043893D01*
X134200712Y-85015437D01*
X134068459Y-84980000D01*
X133931541Y-84980000D01*
X133799288Y-85015437D01*
X133750000Y-85043893D01*
X133750000Y-84305000D01*
X133257155Y-84305000D01*
X133197627Y-84311401D01*
X133197616Y-84311403D01*
X133133960Y-84335146D01*
X133064269Y-84340130D01*
X133002946Y-84306644D01*
X132969461Y-84245321D01*
X132969028Y-84243243D01*
X132962051Y-84208165D01*
X132916644Y-84098542D01*
X132886635Y-84026092D01*
X132886628Y-84026079D01*
X132777139Y-83862218D01*
X132777136Y-83862214D01*
X132634686Y-83719764D01*
X132634655Y-83719735D01*
X132281479Y-83366559D01*
X132281459Y-83366537D01*
X132137785Y-83222863D01*
X132137781Y-83222860D01*
X131973920Y-83113371D01*
X131973907Y-83113364D01*
X131827077Y-83052546D01*
X131794521Y-83039061D01*
X131740117Y-82995220D01*
X131718052Y-82928926D01*
X131735331Y-82861227D01*
X131786468Y-82813616D01*
X131841973Y-82800500D01*
X132724074Y-82800500D01*
X132791113Y-82820185D01*
G37*
%TD.AperFunction*%
%TA.AperFunction,Conductor*%
G36*
X141116352Y-93320185D02*
G01*
X141162107Y-93372989D01*
X141172051Y-93442147D01*
X141145630Y-93500000D01*
X138858463Y-93500000D01*
X138833832Y-93465985D01*
X138829954Y-93396223D01*
X138864408Y-93335439D01*
X138926255Y-93302931D01*
X138950687Y-93300500D01*
X141049313Y-93300500D01*
X141116352Y-93320185D01*
G37*
%TD.AperFunction*%
%TA.AperFunction,Conductor*%
G36*
X143656352Y-93320185D02*
G01*
X143702107Y-93372989D01*
X143712051Y-93442147D01*
X143685630Y-93500000D01*
X141398463Y-93500000D01*
X141373832Y-93465985D01*
X141369954Y-93396223D01*
X141404408Y-93335439D01*
X141466255Y-93302931D01*
X141490687Y-93300500D01*
X143589313Y-93300500D01*
X143656352Y-93320185D01*
G37*
%TD.AperFunction*%
%TA.AperFunction,Conductor*%
G36*
X146196352Y-93320185D02*
G01*
X146242107Y-93372989D01*
X146252051Y-93442147D01*
X146225630Y-93500000D01*
X143938463Y-93500000D01*
X143913832Y-93465985D01*
X143909954Y-93396223D01*
X143944408Y-93335439D01*
X144006255Y-93302931D01*
X144030687Y-93300500D01*
X146129313Y-93300500D01*
X146196352Y-93320185D01*
G37*
%TD.AperFunction*%
%TA.AperFunction,Conductor*%
G36*
X151276352Y-93320185D02*
G01*
X151322107Y-93372989D01*
X151332051Y-93442147D01*
X151305630Y-93500000D01*
X146478463Y-93500000D01*
X146453832Y-93465985D01*
X146449954Y-93396223D01*
X146484408Y-93335439D01*
X146546255Y-93302931D01*
X146570687Y-93300500D01*
X151209313Y-93300500D01*
X151276352Y-93320185D01*
G37*
%TD.AperFunction*%
%TA.AperFunction,Conductor*%
G36*
X153816352Y-93320185D02*
G01*
X153862107Y-93372989D01*
X153872051Y-93442147D01*
X153845630Y-93500000D01*
X151558463Y-93500000D01*
X151533832Y-93465985D01*
X151529954Y-93396223D01*
X151564408Y-93335439D01*
X151626255Y-93302931D01*
X151650687Y-93300500D01*
X153749313Y-93300500D01*
X153816352Y-93320185D01*
G37*
%TD.AperFunction*%
%TA.AperFunction,Conductor*%
G36*
X156356352Y-93320185D02*
G01*
X156402107Y-93372989D01*
X156412051Y-93442147D01*
X156385630Y-93500000D01*
X154098463Y-93500000D01*
X154073832Y-93465985D01*
X154069954Y-93396223D01*
X154104408Y-93335439D01*
X154166255Y-93302931D01*
X154190687Y-93300500D01*
X156289313Y-93300500D01*
X156356352Y-93320185D01*
G37*
%TD.AperFunction*%
%TA.AperFunction,Conductor*%
G36*
X158896352Y-93320185D02*
G01*
X158942107Y-93372989D01*
X158952051Y-93442147D01*
X158925630Y-93500000D01*
X156638463Y-93500000D01*
X156613832Y-93465985D01*
X156609954Y-93396223D01*
X156644408Y-93335439D01*
X156706255Y-93302931D01*
X156730687Y-93300500D01*
X158829313Y-93300500D01*
X158896352Y-93320185D01*
G37*
%TD.AperFunction*%
%TA.AperFunction,Conductor*%
G36*
X161436352Y-93320185D02*
G01*
X161482107Y-93372989D01*
X161492051Y-93442147D01*
X161465630Y-93500000D01*
X159178463Y-93500000D01*
X159153832Y-93465985D01*
X159149954Y-93396223D01*
X159184408Y-93335439D01*
X159246255Y-93302931D01*
X159270687Y-93300500D01*
X161369313Y-93300500D01*
X161436352Y-93320185D01*
G37*
%TD.AperFunction*%
%TA.AperFunction,Conductor*%
G36*
X162684099Y-93320185D02*
G01*
X162704741Y-93336819D01*
X162867922Y-93500000D01*
X161718463Y-93500000D01*
X161693832Y-93465985D01*
X161689954Y-93396223D01*
X161724408Y-93335439D01*
X161786255Y-93302931D01*
X161810687Y-93300500D01*
X162617060Y-93300500D01*
X162684099Y-93320185D01*
G37*
%TD.AperFunction*%
%TA.AperFunction,Conductor*%
G36*
X163942539Y-71520185D02*
G01*
X163988294Y-71572989D01*
X163999500Y-71624500D01*
X163999500Y-71695500D01*
X163979815Y-71762539D01*
X163927011Y-71808294D01*
X163875505Y-71819500D01*
X163852132Y-71819500D01*
X163852123Y-71819501D01*
X163792516Y-71825908D01*
X163657671Y-71876202D01*
X163657664Y-71876206D01*
X163542455Y-71962452D01*
X163542452Y-71962455D01*
X163456206Y-72077664D01*
X163456202Y-72077671D01*
X163405908Y-72212517D01*
X163401296Y-72255418D01*
X163399501Y-72272123D01*
X163399500Y-72272135D01*
X163399500Y-74567870D01*
X163399501Y-74567876D01*
X163405908Y-74627483D01*
X163456202Y-74762328D01*
X163456206Y-74762335D01*
X163542452Y-74877544D01*
X163542455Y-74877547D01*
X163657664Y-74963793D01*
X163657671Y-74963797D01*
X163792517Y-75014091D01*
X163792516Y-75014091D01*
X163799444Y-75014835D01*
X163852127Y-75020500D01*
X166147872Y-75020499D01*
X166207483Y-75014091D01*
X166342331Y-74963796D01*
X166457546Y-74877546D01*
X166543796Y-74762331D01*
X166594091Y-74627483D01*
X166600500Y-74567873D01*
X166600500Y-74544500D01*
X166620185Y-74477461D01*
X166672989Y-74431706D01*
X166724500Y-74420500D01*
X175954218Y-74420500D01*
X176021257Y-74440185D01*
X176041899Y-74456819D01*
X177488181Y-75903102D01*
X177521666Y-75964425D01*
X177524500Y-75990783D01*
X177524500Y-76982870D01*
X177524501Y-76982876D01*
X177530908Y-77042483D01*
X177581202Y-77177328D01*
X177581206Y-77177335D01*
X177667452Y-77292544D01*
X177667455Y-77292547D01*
X177782664Y-77378793D01*
X177782671Y-77378797D01*
X177917517Y-77429091D01*
X177917516Y-77429091D01*
X177924444Y-77429835D01*
X177977127Y-77435500D01*
X180022872Y-77435499D01*
X180082483Y-77429091D01*
X180217331Y-77378796D01*
X180332546Y-77292546D01*
X180418796Y-77177331D01*
X180469091Y-77042483D01*
X180475500Y-76982873D01*
X180475499Y-74937128D01*
X180470299Y-74888757D01*
X180469091Y-74877516D01*
X180418797Y-74742671D01*
X180418793Y-74742664D01*
X180327232Y-74620355D01*
X180329775Y-74618450D01*
X180303788Y-74570858D01*
X180308772Y-74501166D01*
X180350644Y-74445233D01*
X180416108Y-74420816D01*
X180424954Y-74420500D01*
X180454218Y-74420500D01*
X180521257Y-74440185D01*
X180541899Y-74456819D01*
X181963181Y-75878101D01*
X181996666Y-75939424D01*
X181999500Y-75965782D01*
X181999500Y-93500000D01*
X172550500Y-93500000D01*
X172550500Y-91671155D01*
X172550499Y-91671153D01*
X172549956Y-91668422D01*
X172519737Y-91516503D01*
X172507856Y-91487819D01*
X172459397Y-91370827D01*
X172459390Y-91370814D01*
X172371790Y-91239712D01*
X172327860Y-91195782D01*
X172260289Y-91128211D01*
X172240179Y-91108101D01*
X171510292Y-90378213D01*
X171510288Y-90378210D01*
X171379185Y-90290609D01*
X171379172Y-90290602D01*
X171233501Y-90230264D01*
X171233489Y-90230261D01*
X171078845Y-90199500D01*
X171078842Y-90199500D01*
X148382940Y-90199500D01*
X148315901Y-90179815D01*
X148295259Y-90163181D01*
X147836819Y-89704741D01*
X147803334Y-89643418D01*
X147800500Y-89617060D01*
X147800500Y-84807676D01*
X147820185Y-84740637D01*
X147825539Y-84732958D01*
X147939673Y-84581821D01*
X148030582Y-84399250D01*
X148086397Y-84203083D01*
X148105215Y-84000000D01*
X148089648Y-83832007D01*
X148086397Y-83796917D01*
X148064445Y-83719764D01*
X148030582Y-83600750D01*
X148025640Y-83590826D01*
X147986272Y-83511764D01*
X147939673Y-83418179D01*
X147844263Y-83291835D01*
X147816762Y-83255418D01*
X147666041Y-83118019D01*
X147666039Y-83118017D01*
X147492642Y-83010655D01*
X147492635Y-83010651D01*
X147397546Y-82973814D01*
X147302456Y-82936976D01*
X147101976Y-82899500D01*
X146898024Y-82899500D01*
X146697544Y-82936976D01*
X146697541Y-82936976D01*
X146697541Y-82936977D01*
X146507364Y-83010651D01*
X146507357Y-83010655D01*
X146333960Y-83118017D01*
X146333958Y-83118019D01*
X146183237Y-83255418D01*
X146060327Y-83418178D01*
X145969422Y-83600739D01*
X145969417Y-83600752D01*
X145913602Y-83796917D01*
X145894785Y-83999999D01*
X145894785Y-84000000D01*
X145913602Y-84203082D01*
X145969417Y-84399247D01*
X145969422Y-84399260D01*
X146050912Y-84562913D01*
X146060327Y-84581821D01*
X146174454Y-84732950D01*
X146199146Y-84798310D01*
X146199500Y-84807676D01*
X146199500Y-90078846D01*
X146230261Y-90233489D01*
X146230264Y-90233501D01*
X146290602Y-90379172D01*
X146290609Y-90379185D01*
X146378210Y-90510288D01*
X146378213Y-90510292D01*
X147355740Y-91487819D01*
X147389225Y-91549142D01*
X147384241Y-91618834D01*
X147342369Y-91674767D01*
X147276905Y-91699184D01*
X147268059Y-91699500D01*
X137924500Y-91699500D01*
X137857461Y-91679815D01*
X137811706Y-91627011D01*
X137800500Y-91575500D01*
X137800500Y-84757155D01*
X138305000Y-84757155D01*
X138305000Y-85250000D01*
X139043893Y-85250000D01*
X139015437Y-85299288D01*
X138980000Y-85431541D01*
X138980000Y-85568459D01*
X139015437Y-85700712D01*
X139043893Y-85750000D01*
X138305000Y-85750000D01*
X138305000Y-86242844D01*
X138311401Y-86302372D01*
X138311403Y-86302379D01*
X138361645Y-86437086D01*
X138361649Y-86437093D01*
X138447809Y-86552187D01*
X138447812Y-86552190D01*
X138562906Y-86638350D01*
X138562913Y-86638354D01*
X138697620Y-86688596D01*
X138697627Y-86688598D01*
X138757155Y-86694999D01*
X138757172Y-86695000D01*
X139250000Y-86695000D01*
X139250000Y-85956106D01*
X139299288Y-85984563D01*
X139431541Y-86020000D01*
X139568459Y-86020000D01*
X139700712Y-85984563D01*
X139750000Y-85956106D01*
X139750000Y-86695000D01*
X140242828Y-86695000D01*
X140242844Y-86694999D01*
X140302372Y-86688598D01*
X140302379Y-86688596D01*
X140437086Y-86638354D01*
X140437093Y-86638350D01*
X140552187Y-86552190D01*
X140552190Y-86552187D01*
X140638350Y-86437093D01*
X140638354Y-86437086D01*
X140688596Y-86302379D01*
X140688598Y-86302372D01*
X140694999Y-86242844D01*
X140695000Y-86242827D01*
X140695000Y-85750000D01*
X139956107Y-85750000D01*
X139984563Y-85700712D01*
X140020000Y-85568459D01*
X140020000Y-85431541D01*
X139984563Y-85299288D01*
X139956107Y-85250000D01*
X140695000Y-85250000D01*
X140695000Y-84757172D01*
X140694999Y-84757155D01*
X140688598Y-84697627D01*
X140688596Y-84697620D01*
X140638354Y-84562913D01*
X140638350Y-84562906D01*
X140552190Y-84447812D01*
X140552187Y-84447809D01*
X140437093Y-84361649D01*
X140437086Y-84361645D01*
X140302379Y-84311403D01*
X140302372Y-84311401D01*
X140242844Y-84305000D01*
X139750000Y-84305000D01*
X139750000Y-85043893D01*
X139700712Y-85015437D01*
X139568459Y-84980000D01*
X139431541Y-84980000D01*
X139299288Y-85015437D01*
X139250000Y-85043893D01*
X139250000Y-84305000D01*
X138757155Y-84305000D01*
X138697627Y-84311401D01*
X138697620Y-84311403D01*
X138562913Y-84361645D01*
X138562906Y-84361649D01*
X138447812Y-84447809D01*
X138447809Y-84447812D01*
X138361649Y-84562906D01*
X138361645Y-84562913D01*
X138311403Y-84697620D01*
X138311401Y-84697627D01*
X138305000Y-84757155D01*
X137800500Y-84757155D01*
X137800500Y-82924500D01*
X137820185Y-82857461D01*
X137872989Y-82811706D01*
X137924500Y-82800500D01*
X138224074Y-82800500D01*
X138291113Y-82820185D01*
X138336868Y-82872989D01*
X138340256Y-82881167D01*
X138361202Y-82937328D01*
X138361206Y-82937335D01*
X138447452Y-83052544D01*
X138447454Y-83052546D01*
X138562664Y-83138793D01*
X138562671Y-83138797D01*
X138697517Y-83189091D01*
X138697516Y-83189091D01*
X138704444Y-83189835D01*
X138757127Y-83195500D01*
X140242872Y-83195499D01*
X140302483Y-83189091D01*
X140437331Y-83138796D01*
X140552546Y-83052546D01*
X140638796Y-82937331D01*
X140689091Y-82802483D01*
X140695500Y-82742873D01*
X140695499Y-81257128D01*
X140689091Y-81197517D01*
X140668106Y-81141254D01*
X140638797Y-81062671D01*
X140638793Y-81062664D01*
X140552547Y-80947455D01*
X140552544Y-80947452D01*
X140437335Y-80861206D01*
X140437328Y-80861202D01*
X140302482Y-80810908D01*
X140302483Y-80810908D01*
X140242883Y-80804501D01*
X140242881Y-80804500D01*
X140242873Y-80804500D01*
X140242864Y-80804500D01*
X138757129Y-80804500D01*
X138757123Y-80804501D01*
X138697516Y-80810908D01*
X138562671Y-80861202D01*
X138562664Y-80861206D01*
X138447455Y-80947452D01*
X138447452Y-80947455D01*
X138361206Y-81062664D01*
X138361202Y-81062671D01*
X138340256Y-81118833D01*
X138298385Y-81174767D01*
X138232921Y-81199184D01*
X138224074Y-81199500D01*
X135275926Y-81199500D01*
X135208887Y-81179815D01*
X135163132Y-81127011D01*
X135159744Y-81118833D01*
X135138797Y-81062671D01*
X135138793Y-81062664D01*
X135052547Y-80947455D01*
X135052544Y-80947452D01*
X134937335Y-80861206D01*
X134937328Y-80861202D01*
X134802482Y-80810908D01*
X134802483Y-80810908D01*
X134742883Y-80804501D01*
X134742881Y-80804500D01*
X134742873Y-80804500D01*
X134742864Y-80804500D01*
X133257129Y-80804500D01*
X133257123Y-80804501D01*
X133197516Y-80810908D01*
X133062671Y-80861202D01*
X133062664Y-80861206D01*
X132947455Y-80947452D01*
X132947452Y-80947455D01*
X132861206Y-81062664D01*
X132861202Y-81062671D01*
X132840256Y-81118833D01*
X132798385Y-81174767D01*
X132732921Y-81199184D01*
X132724074Y-81199500D01*
X129775926Y-81199500D01*
X129708887Y-81179815D01*
X129663132Y-81127011D01*
X129659744Y-81118833D01*
X129638797Y-81062671D01*
X129638793Y-81062664D01*
X129552547Y-80947455D01*
X129552544Y-80947452D01*
X129437335Y-80861206D01*
X129437328Y-80861202D01*
X129302482Y-80810908D01*
X129302483Y-80810908D01*
X129242883Y-80804501D01*
X129242881Y-80804500D01*
X129242873Y-80804500D01*
X129242864Y-80804500D01*
X127757129Y-80804500D01*
X127757123Y-80804501D01*
X127697516Y-80810908D01*
X127562671Y-80861202D01*
X127562664Y-80861206D01*
X127447455Y-80947452D01*
X127447452Y-80947455D01*
X127361206Y-81062664D01*
X127361202Y-81062671D01*
X127340256Y-81118833D01*
X127298385Y-81174767D01*
X127232921Y-81199184D01*
X127224074Y-81199500D01*
X124775926Y-81199500D01*
X124708887Y-81179815D01*
X124663132Y-81127011D01*
X124659744Y-81118833D01*
X124638797Y-81062671D01*
X124638793Y-81062664D01*
X124552547Y-80947455D01*
X124552544Y-80947452D01*
X124437335Y-80861206D01*
X124437328Y-80861202D01*
X124302482Y-80810908D01*
X124302483Y-80810908D01*
X124242883Y-80804501D01*
X124242881Y-80804500D01*
X124242873Y-80804500D01*
X124242865Y-80804500D01*
X122909780Y-80804500D01*
X122842741Y-80784815D01*
X122796986Y-80732011D01*
X122787042Y-80662853D01*
X122816067Y-80599297D01*
X122822085Y-80592833D01*
X123683101Y-79731818D01*
X123744424Y-79698333D01*
X123770782Y-79695499D01*
X124242871Y-79695499D01*
X124242872Y-79695499D01*
X124302483Y-79689091D01*
X124437331Y-79638796D01*
X124552546Y-79552546D01*
X124554308Y-79550191D01*
X124556662Y-79548429D01*
X124558820Y-79546272D01*
X124559130Y-79546582D01*
X124610240Y-79508319D01*
X124653577Y-79500500D01*
X127346423Y-79500500D01*
X127413462Y-79520185D01*
X127445692Y-79550192D01*
X127447452Y-79552544D01*
X127447453Y-79552545D01*
X127447454Y-79552546D01*
X127476095Y-79573987D01*
X127562664Y-79638793D01*
X127562671Y-79638797D01*
X127697517Y-79689091D01*
X127697516Y-79689091D01*
X127704444Y-79689835D01*
X127757127Y-79695500D01*
X129242872Y-79695499D01*
X129302483Y-79689091D01*
X129437331Y-79638796D01*
X129552546Y-79552546D01*
X129554308Y-79550191D01*
X129556662Y-79548429D01*
X129558820Y-79546272D01*
X129559130Y-79546582D01*
X129610240Y-79508319D01*
X129653577Y-79500500D01*
X132846423Y-79500500D01*
X132913462Y-79520185D01*
X132945692Y-79550192D01*
X132947452Y-79552544D01*
X132947453Y-79552545D01*
X132947454Y-79552546D01*
X132976095Y-79573987D01*
X133062664Y-79638793D01*
X133062671Y-79638797D01*
X133197517Y-79689091D01*
X133197516Y-79689091D01*
X133204444Y-79689835D01*
X133257127Y-79695500D01*
X134742872Y-79695499D01*
X134802483Y-79689091D01*
X134937331Y-79638796D01*
X135052546Y-79552546D01*
X135054308Y-79550191D01*
X135056662Y-79548429D01*
X135058820Y-79546272D01*
X135059130Y-79546582D01*
X135110240Y-79508319D01*
X135153577Y-79500500D01*
X138346423Y-79500500D01*
X138413462Y-79520185D01*
X138445692Y-79550192D01*
X138447452Y-79552544D01*
X138447453Y-79552545D01*
X138447454Y-79552546D01*
X138476095Y-79573987D01*
X138562664Y-79638793D01*
X138562671Y-79638797D01*
X138697517Y-79689091D01*
X138697516Y-79689091D01*
X138704444Y-79689835D01*
X138757127Y-79695500D01*
X140242872Y-79695499D01*
X140302483Y-79689091D01*
X140437331Y-79638796D01*
X140552546Y-79552546D01*
X140638796Y-79437331D01*
X140689091Y-79302483D01*
X140695500Y-79242873D01*
X140695499Y-77757128D01*
X140689091Y-77697517D01*
X140664657Y-77632007D01*
X140638797Y-77562671D01*
X140638793Y-77562664D01*
X140552547Y-77447455D01*
X140552544Y-77447452D01*
X140437335Y-77361206D01*
X140437328Y-77361202D01*
X140302482Y-77310908D01*
X140302483Y-77310908D01*
X140242883Y-77304501D01*
X140242881Y-77304500D01*
X140242873Y-77304500D01*
X140242864Y-77304500D01*
X138757129Y-77304500D01*
X138757123Y-77304501D01*
X138697516Y-77310908D01*
X138562671Y-77361202D01*
X138562664Y-77361206D01*
X138447457Y-77447451D01*
X138447452Y-77447455D01*
X138445692Y-77449808D01*
X138443337Y-77451570D01*
X138441180Y-77453728D01*
X138440869Y-77453417D01*
X138389760Y-77491681D01*
X138346423Y-77499500D01*
X135153577Y-77499500D01*
X135086538Y-77479815D01*
X135054308Y-77449808D01*
X135052547Y-77447455D01*
X135052542Y-77447451D01*
X134937335Y-77361206D01*
X134937328Y-77361202D01*
X134802482Y-77310908D01*
X134802483Y-77310908D01*
X134742883Y-77304501D01*
X134742881Y-77304500D01*
X134742873Y-77304500D01*
X134742864Y-77304500D01*
X133257129Y-77304500D01*
X133257123Y-77304501D01*
X133197516Y-77310908D01*
X133062671Y-77361202D01*
X133062664Y-77361206D01*
X132947457Y-77447451D01*
X132947452Y-77447455D01*
X132945692Y-77449808D01*
X132943337Y-77451570D01*
X132941180Y-77453728D01*
X132940869Y-77453417D01*
X132889760Y-77491681D01*
X132846423Y-77499500D01*
X129653577Y-77499500D01*
X129586538Y-77479815D01*
X129554308Y-77449808D01*
X129552547Y-77447455D01*
X129552542Y-77447451D01*
X129437335Y-77361206D01*
X129437328Y-77361202D01*
X129302482Y-77310908D01*
X129302483Y-77310908D01*
X129242883Y-77304501D01*
X129242881Y-77304500D01*
X129242873Y-77304500D01*
X129242864Y-77304500D01*
X127757129Y-77304500D01*
X127757123Y-77304501D01*
X127697516Y-77310908D01*
X127562671Y-77361202D01*
X127562664Y-77361206D01*
X127447457Y-77447451D01*
X127447452Y-77447455D01*
X127445692Y-77449808D01*
X127443337Y-77451570D01*
X127441180Y-77453728D01*
X127440869Y-77453417D01*
X127389760Y-77491681D01*
X127346423Y-77499500D01*
X124653577Y-77499500D01*
X124586538Y-77479815D01*
X124554308Y-77449808D01*
X124552547Y-77447455D01*
X124552542Y-77447451D01*
X124437335Y-77361206D01*
X124437328Y-77361202D01*
X124302482Y-77310908D01*
X124302483Y-77310908D01*
X124242883Y-77304501D01*
X124242881Y-77304500D01*
X124242873Y-77304500D01*
X124242864Y-77304500D01*
X122757129Y-77304500D01*
X122757123Y-77304501D01*
X122697516Y-77310908D01*
X122562671Y-77361202D01*
X122562664Y-77361206D01*
X122447455Y-77447452D01*
X122447452Y-77447455D01*
X122361206Y-77562664D01*
X122361202Y-77562671D01*
X122310908Y-77697517D01*
X122304501Y-77757116D01*
X122304501Y-77757123D01*
X122304500Y-77757135D01*
X122304500Y-78229217D01*
X122284815Y-78296256D01*
X122268181Y-78316898D01*
X120862221Y-79722858D01*
X120862218Y-79722861D01*
X120802371Y-79782708D01*
X120722860Y-79862218D01*
X120720352Y-79865275D01*
X120718633Y-79866445D01*
X120718553Y-79866526D01*
X120718537Y-79866510D01*
X120662605Y-79904608D01*
X120592761Y-79906477D01*
X120532993Y-79870289D01*
X120502278Y-79807532D01*
X120500500Y-79786608D01*
X120500500Y-75965782D01*
X120520185Y-75898743D01*
X120536819Y-75878101D01*
X123414921Y-72999999D01*
X145894785Y-72999999D01*
X145894785Y-73000000D01*
X145913602Y-73203082D01*
X145969417Y-73399247D01*
X145969422Y-73399260D01*
X146060327Y-73581821D01*
X146183237Y-73744581D01*
X146333958Y-73881980D01*
X146333960Y-73881982D01*
X146352406Y-73893403D01*
X146507363Y-73989348D01*
X146697544Y-74063024D01*
X146898024Y-74100500D01*
X146917060Y-74100500D01*
X146984099Y-74120185D01*
X147004741Y-74136819D01*
X151470681Y-78602759D01*
X151504166Y-78664082D01*
X151507000Y-78690440D01*
X151507000Y-80492870D01*
X151507001Y-80492876D01*
X151513408Y-80552483D01*
X151563702Y-80687328D01*
X151563706Y-80687335D01*
X151649952Y-80802544D01*
X151649955Y-80802547D01*
X151765164Y-80888793D01*
X151765171Y-80888797D01*
X151900017Y-80939091D01*
X151900016Y-80939091D01*
X151906944Y-80939835D01*
X151959627Y-80945500D01*
X153960372Y-80945499D01*
X154019983Y-80939091D01*
X154154831Y-80888796D01*
X154270046Y-80802546D01*
X154276233Y-80794280D01*
X154332166Y-80752409D01*
X154401858Y-80747425D01*
X154463181Y-80780909D01*
X154496666Y-80842232D01*
X154499500Y-80868591D01*
X154499500Y-82098544D01*
X154537947Y-82291833D01*
X154537949Y-82291837D01*
X154560038Y-82345164D01*
X154613366Y-82473911D01*
X154613371Y-82473920D01*
X154722859Y-82637780D01*
X154722860Y-82637781D01*
X154722861Y-82637782D01*
X154862218Y-82777139D01*
X154862219Y-82777139D01*
X154869286Y-82784206D01*
X154869285Y-82784206D01*
X154869288Y-82784208D01*
X156302860Y-84217781D01*
X156302861Y-84217782D01*
X156376907Y-84291828D01*
X156442219Y-84357140D01*
X156577915Y-84447809D01*
X156606086Y-84466632D01*
X156712745Y-84510811D01*
X156788164Y-84542051D01*
X156981454Y-84580499D01*
X156981457Y-84580500D01*
X156981459Y-84580500D01*
X157178540Y-84580500D01*
X163692547Y-84580500D01*
X163759586Y-84600185D01*
X163786833Y-84623965D01*
X163849741Y-84697620D01*
X163864776Y-84715224D01*
X164056343Y-84878838D01*
X164056346Y-84878839D01*
X164271140Y-85010466D01*
X164377526Y-85054532D01*
X164503889Y-85106873D01*
X164748852Y-85165683D01*
X165000000Y-85185449D01*
X165251148Y-85165683D01*
X165496111Y-85106873D01*
X165728859Y-85010466D01*
X165943659Y-84878836D01*
X166135224Y-84715224D01*
X166213164Y-84623967D01*
X166271669Y-84585775D01*
X166307453Y-84580500D01*
X176558542Y-84580500D01*
X176577870Y-84576655D01*
X176655188Y-84561275D01*
X176751836Y-84542051D01*
X176805165Y-84519961D01*
X176933914Y-84466632D01*
X177097782Y-84357139D01*
X177237139Y-84217782D01*
X177237139Y-84217780D01*
X177247347Y-84207573D01*
X177247348Y-84207570D01*
X178903102Y-82551819D01*
X178964425Y-82518334D01*
X178990783Y-82515500D01*
X179122262Y-82515500D01*
X179122263Y-82515500D01*
X179363455Y-82475252D01*
X179594733Y-82395855D01*
X179809788Y-82279473D01*
X180002754Y-82129281D01*
X180168368Y-81949377D01*
X180302111Y-81744667D01*
X180400336Y-81520736D01*
X180460364Y-81283692D01*
X180464675Y-81231670D01*
X180480557Y-81040005D01*
X180480557Y-81039994D01*
X180460365Y-80796316D01*
X180460363Y-80796304D01*
X180420499Y-80638887D01*
X180400336Y-80559264D01*
X180302111Y-80335333D01*
X180248999Y-80254038D01*
X180168367Y-80130621D01*
X180002757Y-79950722D01*
X180002747Y-79950713D01*
X179809791Y-79800529D01*
X179809787Y-79800526D01*
X179594734Y-79684145D01*
X179594729Y-79684143D01*
X179363458Y-79604748D01*
X179182561Y-79574562D01*
X179122263Y-79564500D01*
X178877737Y-79564500D01*
X178829498Y-79572549D01*
X178636541Y-79604748D01*
X178405270Y-79684143D01*
X178405265Y-79684145D01*
X178190212Y-79800526D01*
X178190208Y-79800529D01*
X177997252Y-79950713D01*
X177997242Y-79950722D01*
X177831632Y-80130621D01*
X177697888Y-80335333D01*
X177599663Y-80559265D01*
X177539636Y-80796304D01*
X177539634Y-80796316D01*
X177519443Y-81039994D01*
X177519443Y-81040009D01*
X177519719Y-81043344D01*
X177519443Y-81044684D01*
X177519443Y-81045128D01*
X177519352Y-81045128D01*
X177505632Y-81111779D01*
X177483823Y-81141254D01*
X176081899Y-82543181D01*
X176020576Y-82576666D01*
X175994218Y-82579500D01*
X166307453Y-82579500D01*
X166240414Y-82559815D01*
X166213166Y-82536034D01*
X166135224Y-82444776D01*
X166018595Y-82345165D01*
X165943656Y-82281161D01*
X165943653Y-82281160D01*
X165728859Y-82149533D01*
X165496110Y-82053126D01*
X165251151Y-81994317D01*
X165000000Y-81974551D01*
X164748848Y-81994317D01*
X164503889Y-82053126D01*
X164271140Y-82149533D01*
X164056346Y-82281160D01*
X164056343Y-82281161D01*
X163864776Y-82444775D01*
X163838748Y-82475251D01*
X163786835Y-82536032D01*
X163728331Y-82574225D01*
X163692547Y-82579500D01*
X157545783Y-82579500D01*
X157478744Y-82559815D01*
X157458102Y-82543181D01*
X156536819Y-81621898D01*
X156503334Y-81560575D01*
X156500500Y-81534217D01*
X156500500Y-80598214D01*
X156520185Y-80531175D01*
X156536819Y-80510533D01*
X156554482Y-80492870D01*
X156608286Y-80439066D01*
X156669992Y-80354134D01*
X156725319Y-80311470D01*
X156794932Y-80305491D01*
X156856727Y-80338096D01*
X156870626Y-80354135D01*
X156932097Y-80438741D01*
X156932097Y-80438742D01*
X157093757Y-80600402D01*
X157278723Y-80734788D01*
X157482429Y-80838582D01*
X157699871Y-80909234D01*
X157790000Y-80923509D01*
X157790000Y-79935747D01*
X157827708Y-79957518D01*
X157967591Y-79995000D01*
X158112409Y-79995000D01*
X158252292Y-79957518D01*
X158290000Y-79935747D01*
X158290000Y-80923508D01*
X158380128Y-80909234D01*
X158597570Y-80838582D01*
X158801276Y-80734788D01*
X158986242Y-80600402D01*
X159147902Y-80438742D01*
X159282288Y-80253776D01*
X159386082Y-80050070D01*
X159456734Y-79832628D01*
X159478532Y-79695000D01*
X158530748Y-79695000D01*
X158552518Y-79657292D01*
X158590000Y-79517409D01*
X158590000Y-79372591D01*
X158552518Y-79232708D01*
X158530748Y-79195000D01*
X159478532Y-79195000D01*
X159456734Y-79057371D01*
X159386082Y-78839929D01*
X159282288Y-78636223D01*
X159147902Y-78451257D01*
X158986242Y-78289597D01*
X158801276Y-78155211D01*
X158597568Y-78051417D01*
X158380124Y-77980765D01*
X158290000Y-77966490D01*
X158290000Y-78954252D01*
X158252292Y-78932482D01*
X158112409Y-78895000D01*
X157967591Y-78895000D01*
X157827708Y-78932482D01*
X157790000Y-78954252D01*
X157790000Y-77966490D01*
X157789999Y-77966490D01*
X157699875Y-77980765D01*
X157482431Y-78051417D01*
X157278723Y-78155211D01*
X157093757Y-78289597D01*
X156932097Y-78451257D01*
X156870627Y-78535864D01*
X156815297Y-78578529D01*
X156745684Y-78584508D01*
X156683889Y-78551902D01*
X156669991Y-78535864D01*
X156654414Y-78514424D01*
X156608286Y-78450934D01*
X156446566Y-78289214D01*
X156261538Y-78154783D01*
X156057755Y-78050950D01*
X155840248Y-77980278D01*
X155654812Y-77950908D01*
X155614354Y-77944500D01*
X155385646Y-77944500D01*
X155345188Y-77950908D01*
X155159753Y-77980278D01*
X155159750Y-77980278D01*
X154942244Y-78050950D01*
X154738461Y-78154783D01*
X154555759Y-78287525D01*
X154489952Y-78311005D01*
X154421898Y-78295180D01*
X154373203Y-78245074D01*
X154366690Y-78230538D01*
X154366197Y-78229217D01*
X154356296Y-78202669D01*
X154356293Y-78202664D01*
X154270047Y-78087455D01*
X154270044Y-78087452D01*
X154154835Y-78001206D01*
X154154828Y-78001202D01*
X154019982Y-77950908D01*
X154019983Y-77950908D01*
X153960383Y-77944501D01*
X153960381Y-77944500D01*
X153960373Y-77944500D01*
X153960365Y-77944500D01*
X153127940Y-77944500D01*
X153060901Y-77924815D01*
X153040259Y-77908181D01*
X148134130Y-73002052D01*
X148100645Y-72940729D01*
X148098340Y-72925812D01*
X148086397Y-72796917D01*
X148030582Y-72600750D01*
X147997031Y-72533371D01*
X147959475Y-72457947D01*
X147939673Y-72418179D01*
X147829377Y-72272123D01*
X147816762Y-72255418D01*
X147666041Y-72118019D01*
X147666039Y-72118017D01*
X147492642Y-72010655D01*
X147492635Y-72010651D01*
X147368223Y-71962454D01*
X147302456Y-71936976D01*
X147101976Y-71899500D01*
X146898024Y-71899500D01*
X146697544Y-71936976D01*
X146697541Y-71936976D01*
X146697541Y-71936977D01*
X146507364Y-72010651D01*
X146507357Y-72010655D01*
X146333960Y-72118017D01*
X146333958Y-72118019D01*
X146183237Y-72255418D01*
X146060327Y-72418178D01*
X145969422Y-72600739D01*
X145969417Y-72600752D01*
X145913602Y-72796917D01*
X145894785Y-72999999D01*
X123414921Y-72999999D01*
X124878101Y-71536819D01*
X124939424Y-71503334D01*
X124965782Y-71500500D01*
X163875500Y-71500500D01*
X163942539Y-71520185D01*
G37*
%TD.AperFunction*%
%TD*%
%TA.AperFunction,Conductor*%
%TO.N,GND*%
G36*
X183967002Y-117199704D02*
G01*
X183997721Y-117262459D01*
X183999500Y-117283391D01*
X183999500Y-123875500D01*
X183979815Y-123942539D01*
X183927011Y-123988294D01*
X183875500Y-123999500D01*
X132500000Y-123999500D01*
X132500000Y-123300500D01*
X168078844Y-123300500D01*
X168078845Y-123300499D01*
X168233497Y-123269737D01*
X168379179Y-123209394D01*
X168510289Y-123121789D01*
X169831788Y-121800290D01*
X169838259Y-121790606D01*
X169919394Y-121669179D01*
X169921307Y-121664562D01*
X169979736Y-121523499D01*
X169979737Y-121523497D01*
X169991274Y-121465500D01*
X170010500Y-121368843D01*
X170010500Y-121240549D01*
X170030185Y-121173510D01*
X170046819Y-121152868D01*
X170113055Y-121086632D01*
X170183132Y-121016555D01*
X170310142Y-120835167D01*
X170367618Y-120711907D01*
X170413790Y-120659468D01*
X170480983Y-120640316D01*
X170547864Y-120660531D01*
X170592382Y-120711908D01*
X170649738Y-120834911D01*
X170649858Y-120835167D01*
X170776868Y-121016555D01*
X170933445Y-121173132D01*
X171114833Y-121300142D01*
X171235572Y-121356443D01*
X171315513Y-121393720D01*
X171315515Y-121393720D01*
X171315520Y-121393723D01*
X171529409Y-121451035D01*
X171686974Y-121464820D01*
X171749998Y-121470334D01*
X171750000Y-121470334D01*
X171750002Y-121470334D01*
X171805265Y-121465499D01*
X171970591Y-121451035D01*
X172184480Y-121393723D01*
X172385167Y-121300142D01*
X172566555Y-121173132D01*
X172723132Y-121016555D01*
X172850142Y-120835167D01*
X172907618Y-120711907D01*
X172953790Y-120659468D01*
X173020983Y-120640316D01*
X173087864Y-120660531D01*
X173132382Y-120711908D01*
X173189738Y-120834911D01*
X173189858Y-120835167D01*
X173316868Y-121016555D01*
X173473445Y-121173132D01*
X173654833Y-121300142D01*
X173775572Y-121356443D01*
X173855513Y-121393720D01*
X173855515Y-121393720D01*
X173855520Y-121393723D01*
X174069409Y-121451035D01*
X174226974Y-121464820D01*
X174289998Y-121470334D01*
X174290000Y-121470334D01*
X174290002Y-121470334D01*
X174345265Y-121465499D01*
X174510591Y-121451035D01*
X174724480Y-121393723D01*
X174925167Y-121300142D01*
X175106555Y-121173132D01*
X175263132Y-121016555D01*
X175390142Y-120835167D01*
X175447618Y-120711907D01*
X175493790Y-120659468D01*
X175560983Y-120640316D01*
X175627864Y-120660531D01*
X175672382Y-120711908D01*
X175729738Y-120834911D01*
X175729858Y-120835167D01*
X175856868Y-121016555D01*
X176013445Y-121173132D01*
X176194833Y-121300142D01*
X176315572Y-121356443D01*
X176395513Y-121393720D01*
X176395515Y-121393720D01*
X176395520Y-121393723D01*
X176609409Y-121451035D01*
X176766974Y-121464820D01*
X176829998Y-121470334D01*
X176830000Y-121470334D01*
X176830002Y-121470334D01*
X176885265Y-121465499D01*
X177050591Y-121451035D01*
X177264480Y-121393723D01*
X177465167Y-121300142D01*
X177646555Y-121173132D01*
X177803132Y-121016555D01*
X177930142Y-120835167D01*
X177987618Y-120711907D01*
X178033790Y-120659468D01*
X178100983Y-120640316D01*
X178167864Y-120660531D01*
X178212382Y-120711908D01*
X178269738Y-120834911D01*
X178269858Y-120835167D01*
X178396868Y-121016555D01*
X178553445Y-121173132D01*
X178734833Y-121300142D01*
X178855572Y-121356443D01*
X178935513Y-121393720D01*
X178935515Y-121393720D01*
X178935520Y-121393723D01*
X179149409Y-121451035D01*
X179306974Y-121464820D01*
X179369998Y-121470334D01*
X179370000Y-121470334D01*
X179370002Y-121470334D01*
X179425265Y-121465499D01*
X179590591Y-121451035D01*
X179804480Y-121393723D01*
X180005167Y-121300142D01*
X180186555Y-121173132D01*
X180343132Y-121016555D01*
X180470142Y-120835167D01*
X180563723Y-120634480D01*
X180621035Y-120420591D01*
X180622538Y-120403408D01*
X180647986Y-120338344D01*
X180658376Y-120326542D01*
X183637778Y-117347141D01*
X183637782Y-117347139D01*
X183777139Y-117207782D01*
X183777144Y-117207773D01*
X183779643Y-117204730D01*
X183781362Y-117203558D01*
X183781447Y-117203474D01*
X183781463Y-117203490D01*
X183837387Y-117165393D01*
X183907232Y-117163520D01*
X183967002Y-117199704D01*
G37*
%TD.AperFunction*%
%TA.AperFunction,Conductor*%
G36*
X132527454Y-121322546D02*
G01*
X132573643Y-121357123D01*
X132642664Y-121408793D01*
X132642671Y-121408797D01*
X132778125Y-121459318D01*
X132834059Y-121501189D01*
X132858476Y-121566653D01*
X132843625Y-121634926D01*
X132794220Y-121684332D01*
X132734792Y-121699500D01*
X132500000Y-121699500D01*
X132500000Y-121285872D01*
X132527454Y-121322546D01*
G37*
%TD.AperFunction*%
%TA.AperFunction,Conductor*%
G36*
X166194755Y-120396853D02*
G01*
X166261898Y-120513147D01*
X166356853Y-120608102D01*
X166473147Y-120675245D01*
X166532425Y-120691128D01*
X165969657Y-121253894D01*
X166035084Y-121299706D01*
X166235690Y-121393250D01*
X166235699Y-121393254D01*
X166449490Y-121450538D01*
X166449500Y-121450540D01*
X166465865Y-121451972D01*
X166530933Y-121477425D01*
X166571912Y-121534016D01*
X166575790Y-121603778D01*
X166541336Y-121664562D01*
X166479489Y-121697069D01*
X166455057Y-121699500D01*
X164350687Y-121699500D01*
X164283648Y-121679815D01*
X164237893Y-121627011D01*
X164227949Y-121557853D01*
X164256974Y-121494297D01*
X164315752Y-121456523D01*
X164339879Y-121451972D01*
X164350591Y-121451035D01*
X164564480Y-121393723D01*
X164765167Y-121300142D01*
X164946555Y-121173132D01*
X165103132Y-121016555D01*
X165230142Y-120835167D01*
X165287895Y-120711312D01*
X165334064Y-120658878D01*
X165401258Y-120639725D01*
X165468139Y-120659940D01*
X165512657Y-120711316D01*
X165570293Y-120834916D01*
X165570295Y-120834920D01*
X165616103Y-120900341D01*
X165616104Y-120900341D01*
X166178871Y-120337574D01*
X166194755Y-120396853D01*
G37*
%TD.AperFunction*%
%TA.AperFunction,Conductor*%
G36*
X167723895Y-120900341D02*
G01*
X167769705Y-120834919D01*
X167769709Y-120834911D01*
X167827342Y-120711317D01*
X167873514Y-120658877D01*
X167940707Y-120639725D01*
X168007588Y-120659940D01*
X168052106Y-120711317D01*
X168109856Y-120835163D01*
X168109862Y-120835173D01*
X168131897Y-120866642D01*
X168209268Y-120977139D01*
X168224342Y-120998666D01*
X168246670Y-121064872D01*
X168229660Y-121132639D01*
X168210449Y-121157471D01*
X167704741Y-121663181D01*
X167643418Y-121696666D01*
X167617060Y-121699500D01*
X166884943Y-121699500D01*
X166817904Y-121679815D01*
X166772149Y-121627011D01*
X166762205Y-121557853D01*
X166791230Y-121494297D01*
X166850008Y-121456523D01*
X166874135Y-121451972D01*
X166890499Y-121450540D01*
X166890509Y-121450538D01*
X167104300Y-121393254D01*
X167104314Y-121393249D01*
X167304911Y-121299709D01*
X167304919Y-121299705D01*
X167370341Y-121253895D01*
X166807574Y-120691128D01*
X166866853Y-120675245D01*
X166983147Y-120608102D01*
X167078102Y-120513147D01*
X167145245Y-120396853D01*
X167161128Y-120337574D01*
X167723895Y-120900341D01*
G37*
%TD.AperFunction*%
%TA.AperFunction,Conductor*%
G36*
X181999500Y-116104217D02*
G01*
X181979815Y-116171256D01*
X181963181Y-116191898D01*
X179243464Y-118911614D01*
X179182141Y-118945099D01*
X179166595Y-118947461D01*
X179155221Y-118948456D01*
X179149409Y-118948965D01*
X179149407Y-118948965D01*
X178935524Y-119006275D01*
X178935513Y-119006279D01*
X178734836Y-119099856D01*
X178734834Y-119099857D01*
X178553444Y-119226868D01*
X178396868Y-119383444D01*
X178269857Y-119564834D01*
X178269856Y-119564836D01*
X178212382Y-119688091D01*
X178166210Y-119740531D01*
X178099017Y-119759683D01*
X178032135Y-119739467D01*
X177987618Y-119688091D01*
X177930143Y-119564836D01*
X177930142Y-119564834D01*
X177930142Y-119564833D01*
X177803132Y-119383445D01*
X177646555Y-119226868D01*
X177465167Y-119099858D01*
X177465163Y-119099856D01*
X177264486Y-119006279D01*
X177264475Y-119006275D01*
X177050592Y-118948965D01*
X177050585Y-118948964D01*
X176830002Y-118929666D01*
X176829998Y-118929666D01*
X176609414Y-118948964D01*
X176609407Y-118948965D01*
X176395524Y-119006275D01*
X176395513Y-119006279D01*
X176194836Y-119099856D01*
X176194834Y-119099857D01*
X176013444Y-119226868D01*
X175856868Y-119383444D01*
X175729857Y-119564834D01*
X175729856Y-119564836D01*
X175672382Y-119688091D01*
X175626210Y-119740531D01*
X175559017Y-119759683D01*
X175492135Y-119739467D01*
X175447618Y-119688091D01*
X175390143Y-119564836D01*
X175390142Y-119564834D01*
X175390142Y-119564833D01*
X175263132Y-119383445D01*
X175106555Y-119226868D01*
X174925167Y-119099858D01*
X174925163Y-119099856D01*
X174724486Y-119006279D01*
X174724475Y-119006275D01*
X174510592Y-118948965D01*
X174510585Y-118948964D01*
X174290002Y-118929666D01*
X174289998Y-118929666D01*
X174069414Y-118948964D01*
X174069407Y-118948965D01*
X173855524Y-119006275D01*
X173855513Y-119006279D01*
X173654836Y-119099856D01*
X173654834Y-119099857D01*
X173473444Y-119226868D01*
X173316868Y-119383444D01*
X173189857Y-119564834D01*
X173189856Y-119564836D01*
X173132382Y-119688091D01*
X173086210Y-119740531D01*
X173019017Y-119759683D01*
X172952135Y-119739467D01*
X172907618Y-119688091D01*
X172850143Y-119564836D01*
X172850142Y-119564834D01*
X172850142Y-119564833D01*
X172723132Y-119383445D01*
X172566555Y-119226868D01*
X172385167Y-119099858D01*
X172385163Y-119099856D01*
X172184486Y-119006279D01*
X172184475Y-119006275D01*
X171970592Y-118948965D01*
X171970585Y-118948964D01*
X171750002Y-118929666D01*
X171749998Y-118929666D01*
X171529414Y-118948964D01*
X171529407Y-118948965D01*
X171315524Y-119006275D01*
X171315513Y-119006279D01*
X171114836Y-119099856D01*
X171114834Y-119099857D01*
X170933444Y-119226868D01*
X170776868Y-119383444D01*
X170649857Y-119564834D01*
X170649856Y-119564836D01*
X170592382Y-119688091D01*
X170546210Y-119740531D01*
X170479017Y-119759683D01*
X170412135Y-119739467D01*
X170367618Y-119688091D01*
X170310143Y-119564836D01*
X170310142Y-119564834D01*
X170310142Y-119564833D01*
X170183132Y-119383445D01*
X170026555Y-119226868D01*
X169845167Y-119099858D01*
X169845163Y-119099856D01*
X169644486Y-119006279D01*
X169644475Y-119006275D01*
X169430592Y-118948965D01*
X169430585Y-118948964D01*
X169210002Y-118929666D01*
X169209998Y-118929666D01*
X168989414Y-118948964D01*
X168989407Y-118948965D01*
X168775524Y-119006275D01*
X168775513Y-119006279D01*
X168574836Y-119099856D01*
X168574834Y-119099857D01*
X168393444Y-119226868D01*
X168236868Y-119383444D01*
X168109857Y-119564833D01*
X168052106Y-119688683D01*
X168005934Y-119741122D01*
X167938740Y-119760274D01*
X167871859Y-119740058D01*
X167827342Y-119688683D01*
X167769707Y-119565084D01*
X167723894Y-119499657D01*
X167161128Y-120062424D01*
X167145245Y-120003147D01*
X167078102Y-119886853D01*
X166983147Y-119791898D01*
X166866853Y-119724755D01*
X166807574Y-119708871D01*
X167370341Y-119146104D01*
X167370341Y-119146103D01*
X167304920Y-119100295D01*
X167304916Y-119100293D01*
X167104309Y-119006749D01*
X167104300Y-119006745D01*
X166890509Y-118949461D01*
X166890499Y-118949459D01*
X166670001Y-118930168D01*
X166669999Y-118930168D01*
X166449500Y-118949459D01*
X166449490Y-118949461D01*
X166235699Y-119006745D01*
X166235690Y-119006749D01*
X166035080Y-119100295D01*
X165969658Y-119146103D01*
X165969657Y-119146104D01*
X166532425Y-119708871D01*
X166473147Y-119724755D01*
X166356853Y-119791898D01*
X166261898Y-119886853D01*
X166194755Y-120003147D01*
X166178871Y-120062424D01*
X165616104Y-119499657D01*
X165616103Y-119499658D01*
X165570294Y-119565080D01*
X165512657Y-119688683D01*
X165466484Y-119741122D01*
X165399290Y-119760274D01*
X165332409Y-119740058D01*
X165287893Y-119688682D01*
X165230142Y-119564833D01*
X165103132Y-119383445D01*
X164946555Y-119226868D01*
X164765167Y-119099858D01*
X164765163Y-119099856D01*
X164564486Y-119006279D01*
X164564475Y-119006275D01*
X164350592Y-118948965D01*
X164350585Y-118948964D01*
X164130002Y-118929666D01*
X164129998Y-118929666D01*
X163909414Y-118948964D01*
X163909407Y-118948965D01*
X163695524Y-119006275D01*
X163695513Y-119006279D01*
X163494836Y-119099856D01*
X163494834Y-119099857D01*
X163313444Y-119226868D01*
X163156868Y-119383444D01*
X163029857Y-119564834D01*
X163029856Y-119564836D01*
X162972382Y-119688091D01*
X162926210Y-119740531D01*
X162859017Y-119759683D01*
X162792135Y-119739467D01*
X162747618Y-119688091D01*
X162690143Y-119564836D01*
X162690142Y-119564834D01*
X162690142Y-119564833D01*
X162563132Y-119383445D01*
X162406555Y-119226868D01*
X162225167Y-119099858D01*
X162225163Y-119099856D01*
X162024486Y-119006279D01*
X162024475Y-119006275D01*
X161810592Y-118948965D01*
X161810585Y-118948964D01*
X161590002Y-118929666D01*
X161589998Y-118929666D01*
X161369414Y-118948964D01*
X161369407Y-118948965D01*
X161155524Y-119006275D01*
X161155513Y-119006279D01*
X160954836Y-119099856D01*
X160954834Y-119099857D01*
X160773444Y-119226868D01*
X160616868Y-119383444D01*
X160489857Y-119564834D01*
X160489856Y-119564836D01*
X160432382Y-119688091D01*
X160386210Y-119740531D01*
X160319017Y-119759683D01*
X160252135Y-119739467D01*
X160207618Y-119688091D01*
X160150143Y-119564836D01*
X160150142Y-119564834D01*
X160150142Y-119564833D01*
X160023132Y-119383445D01*
X159866555Y-119226868D01*
X159685167Y-119099858D01*
X159685163Y-119099856D01*
X159484486Y-119006279D01*
X159484475Y-119006275D01*
X159270592Y-118948965D01*
X159270585Y-118948964D01*
X159050002Y-118929666D01*
X159049998Y-118929666D01*
X158829414Y-118948964D01*
X158829407Y-118948965D01*
X158615524Y-119006275D01*
X158615513Y-119006279D01*
X158414836Y-119099856D01*
X158414834Y-119099857D01*
X158233444Y-119226868D01*
X158076868Y-119383444D01*
X157949857Y-119564834D01*
X157949856Y-119564836D01*
X157892382Y-119688091D01*
X157846210Y-119740531D01*
X157779017Y-119759683D01*
X157712135Y-119739467D01*
X157667618Y-119688091D01*
X157610143Y-119564836D01*
X157610142Y-119564834D01*
X157610142Y-119564833D01*
X157483132Y-119383445D01*
X157326555Y-119226868D01*
X157145167Y-119099858D01*
X157145163Y-119099856D01*
X156944486Y-119006279D01*
X156944475Y-119006275D01*
X156730592Y-118948965D01*
X156730585Y-118948964D01*
X156510002Y-118929666D01*
X156509998Y-118929666D01*
X156289414Y-118948964D01*
X156289407Y-118948965D01*
X156075524Y-119006275D01*
X156075513Y-119006279D01*
X155874836Y-119099856D01*
X155874834Y-119099857D01*
X155693444Y-119226868D01*
X155536868Y-119383444D01*
X155409857Y-119564834D01*
X155409856Y-119564836D01*
X155352382Y-119688091D01*
X155306210Y-119740531D01*
X155239017Y-119759683D01*
X155172135Y-119739467D01*
X155127618Y-119688091D01*
X155070143Y-119564836D01*
X155070142Y-119564834D01*
X155070142Y-119564833D01*
X154943132Y-119383445D01*
X154786555Y-119226868D01*
X154605167Y-119099858D01*
X154605163Y-119099856D01*
X154404486Y-119006279D01*
X154404475Y-119006275D01*
X154190592Y-118948965D01*
X154190585Y-118948964D01*
X153970002Y-118929666D01*
X153969998Y-118929666D01*
X153749414Y-118948964D01*
X153749407Y-118948965D01*
X153535524Y-119006275D01*
X153535513Y-119006279D01*
X153334836Y-119099856D01*
X153334834Y-119099857D01*
X153153444Y-119226868D01*
X152996868Y-119383444D01*
X152869857Y-119564834D01*
X152869856Y-119564836D01*
X152812382Y-119688091D01*
X152766210Y-119740531D01*
X152699017Y-119759683D01*
X152632135Y-119739467D01*
X152587618Y-119688091D01*
X152530143Y-119564836D01*
X152530142Y-119564834D01*
X152530142Y-119564833D01*
X152403132Y-119383445D01*
X152246555Y-119226868D01*
X152065167Y-119099858D01*
X152065163Y-119099856D01*
X151864486Y-119006279D01*
X151864475Y-119006275D01*
X151650592Y-118948965D01*
X151650585Y-118948964D01*
X151430002Y-118929666D01*
X151429998Y-118929666D01*
X151209414Y-118948964D01*
X151209407Y-118948965D01*
X150995524Y-119006275D01*
X150995513Y-119006279D01*
X150794836Y-119099856D01*
X150794834Y-119099857D01*
X150613444Y-119226868D01*
X150456868Y-119383444D01*
X150329857Y-119564834D01*
X150329856Y-119564836D01*
X150272382Y-119688091D01*
X150226210Y-119740531D01*
X150159017Y-119759683D01*
X150092135Y-119739467D01*
X150047618Y-119688091D01*
X149990143Y-119564836D01*
X149990142Y-119564834D01*
X149990142Y-119564833D01*
X149863132Y-119383445D01*
X149706555Y-119226868D01*
X149525167Y-119099858D01*
X149525163Y-119099856D01*
X149324486Y-119006279D01*
X149324475Y-119006275D01*
X149110592Y-118948965D01*
X149110585Y-118948964D01*
X148890002Y-118929666D01*
X148889998Y-118929666D01*
X148669414Y-118948964D01*
X148669407Y-118948965D01*
X148455524Y-119006275D01*
X148455513Y-119006279D01*
X148254836Y-119099856D01*
X148254834Y-119099857D01*
X148073444Y-119226868D01*
X147916868Y-119383444D01*
X147789857Y-119564834D01*
X147789856Y-119564836D01*
X147732382Y-119688091D01*
X147686210Y-119740531D01*
X147619017Y-119759683D01*
X147552135Y-119739467D01*
X147507618Y-119688091D01*
X147450143Y-119564836D01*
X147450142Y-119564834D01*
X147450142Y-119564833D01*
X147323132Y-119383445D01*
X147166555Y-119226868D01*
X146985167Y-119099858D01*
X146985163Y-119099856D01*
X146784486Y-119006279D01*
X146784475Y-119006275D01*
X146570592Y-118948965D01*
X146570585Y-118948964D01*
X146350002Y-118929666D01*
X146349998Y-118929666D01*
X146129414Y-118948964D01*
X146129407Y-118948965D01*
X145915524Y-119006275D01*
X145915513Y-119006279D01*
X145714836Y-119099856D01*
X145714834Y-119099857D01*
X145533444Y-119226868D01*
X145376868Y-119383444D01*
X145249857Y-119564834D01*
X145249856Y-119564836D01*
X145192382Y-119688091D01*
X145146210Y-119740531D01*
X145079017Y-119759683D01*
X145012135Y-119739467D01*
X144967618Y-119688091D01*
X144910143Y-119564836D01*
X144910142Y-119564834D01*
X144910142Y-119564833D01*
X144783132Y-119383445D01*
X144626555Y-119226868D01*
X144445167Y-119099858D01*
X144445163Y-119099856D01*
X144244486Y-119006279D01*
X144244475Y-119006275D01*
X144030592Y-118948965D01*
X144030585Y-118948964D01*
X143810002Y-118929666D01*
X143809998Y-118929666D01*
X143589414Y-118948964D01*
X143589407Y-118948965D01*
X143375524Y-119006275D01*
X143375513Y-119006279D01*
X143174836Y-119099856D01*
X143174834Y-119099857D01*
X142993444Y-119226868D01*
X142836868Y-119383444D01*
X142709857Y-119564834D01*
X142709856Y-119564836D01*
X142652382Y-119688091D01*
X142606210Y-119740531D01*
X142539017Y-119759683D01*
X142472135Y-119739467D01*
X142427618Y-119688091D01*
X142370143Y-119564836D01*
X142370142Y-119564834D01*
X142370142Y-119564833D01*
X142243132Y-119383445D01*
X142086555Y-119226868D01*
X141905167Y-119099858D01*
X141905163Y-119099856D01*
X141704486Y-119006279D01*
X141704475Y-119006275D01*
X141490592Y-118948965D01*
X141490585Y-118948964D01*
X141270002Y-118929666D01*
X141269998Y-118929666D01*
X141049414Y-118948964D01*
X141049407Y-118948965D01*
X140835524Y-119006275D01*
X140835513Y-119006279D01*
X140634836Y-119099856D01*
X140634834Y-119099857D01*
X140453444Y-119226868D01*
X140296868Y-119383444D01*
X140169857Y-119564834D01*
X140169856Y-119564836D01*
X140112382Y-119688091D01*
X140066210Y-119740531D01*
X139999017Y-119759683D01*
X139932135Y-119739467D01*
X139887618Y-119688091D01*
X139830143Y-119564836D01*
X139830142Y-119564834D01*
X139830142Y-119564833D01*
X139703132Y-119383445D01*
X139546555Y-119226868D01*
X139365167Y-119099858D01*
X139365163Y-119099856D01*
X139164486Y-119006279D01*
X139164475Y-119006275D01*
X138950592Y-118948965D01*
X138950585Y-118948964D01*
X138730002Y-118929666D01*
X138729998Y-118929666D01*
X138509414Y-118948964D01*
X138509407Y-118948965D01*
X138295524Y-119006275D01*
X138295513Y-119006279D01*
X138094836Y-119099856D01*
X138094834Y-119099857D01*
X137913444Y-119226868D01*
X137756868Y-119383444D01*
X137629857Y-119564834D01*
X137629856Y-119564836D01*
X137572382Y-119688091D01*
X137526210Y-119740531D01*
X137459017Y-119759683D01*
X137392135Y-119739467D01*
X137347618Y-119688091D01*
X137290143Y-119564836D01*
X137290142Y-119564834D01*
X137290142Y-119564833D01*
X137163132Y-119383445D01*
X137006555Y-119226868D01*
X136825167Y-119099858D01*
X136825163Y-119099856D01*
X136624486Y-119006279D01*
X136624475Y-119006275D01*
X136410592Y-118948965D01*
X136410585Y-118948964D01*
X136190002Y-118929666D01*
X136189998Y-118929666D01*
X135969414Y-118948964D01*
X135969407Y-118948965D01*
X135755524Y-119006275D01*
X135755513Y-119006279D01*
X135554836Y-119099856D01*
X135554834Y-119099857D01*
X135373444Y-119226868D01*
X135216868Y-119383444D01*
X135141074Y-119491690D01*
X135086497Y-119535315D01*
X135016998Y-119542507D01*
X134954644Y-119510985D01*
X134919230Y-119450755D01*
X134915499Y-119420566D01*
X134915499Y-119387129D01*
X134915498Y-119387123D01*
X134909091Y-119327516D01*
X134858797Y-119192671D01*
X134858793Y-119192664D01*
X134772547Y-119077455D01*
X134772544Y-119077453D01*
X134754722Y-119064111D01*
X134700188Y-119023286D01*
X134658318Y-118967352D01*
X134650500Y-118924020D01*
X134650500Y-98551456D01*
X134612052Y-98358170D01*
X134612051Y-98358169D01*
X134612051Y-98358165D01*
X134612049Y-98358160D01*
X134536635Y-98176092D01*
X134536628Y-98176079D01*
X134427140Y-98012219D01*
X134427139Y-98012218D01*
X134287782Y-97872861D01*
X134287781Y-97872860D01*
X133036819Y-96621898D01*
X133003334Y-96560575D01*
X133000500Y-96534217D01*
X133000500Y-96088098D01*
X133020185Y-96021059D01*
X133072989Y-95975304D01*
X133142147Y-95965360D01*
X133176900Y-95975714D01*
X133215520Y-95993723D01*
X133429409Y-96051035D01*
X133586974Y-96064820D01*
X133649998Y-96070334D01*
X133650000Y-96070334D01*
X133650002Y-96070334D01*
X133705147Y-96065509D01*
X133870591Y-96051035D01*
X134084480Y-95993723D01*
X134285167Y-95900142D01*
X134466555Y-95773132D01*
X134623132Y-95616555D01*
X134750142Y-95435167D01*
X134807618Y-95311907D01*
X134853790Y-95259468D01*
X134920983Y-95240316D01*
X134987864Y-95260531D01*
X135032382Y-95311908D01*
X135089738Y-95434911D01*
X135089858Y-95435167D01*
X135216868Y-95616555D01*
X135373445Y-95773132D01*
X135554833Y-95900142D01*
X135675572Y-95956443D01*
X135755513Y-95993720D01*
X135755515Y-95993720D01*
X135755520Y-95993723D01*
X135969409Y-96051035D01*
X136126974Y-96064820D01*
X136189998Y-96070334D01*
X136190000Y-96070334D01*
X136190002Y-96070334D01*
X136245147Y-96065509D01*
X136410591Y-96051035D01*
X136624480Y-95993723D01*
X136825167Y-95900142D01*
X137006555Y-95773132D01*
X137163132Y-95616555D01*
X137290142Y-95435167D01*
X137347618Y-95311907D01*
X137393790Y-95259468D01*
X137460983Y-95240316D01*
X137527864Y-95260531D01*
X137572382Y-95311908D01*
X137629738Y-95434911D01*
X137629858Y-95435167D01*
X137756868Y-95616555D01*
X137913445Y-95773132D01*
X138094833Y-95900142D01*
X138215572Y-95956443D01*
X138295513Y-95993720D01*
X138295515Y-95993720D01*
X138295520Y-95993723D01*
X138509409Y-96051035D01*
X138666974Y-96064820D01*
X138729998Y-96070334D01*
X138730000Y-96070334D01*
X138730002Y-96070334D01*
X138785147Y-96065509D01*
X138950591Y-96051035D01*
X139164480Y-95993723D01*
X139365167Y-95900142D01*
X139546555Y-95773132D01*
X139703132Y-95616555D01*
X139830142Y-95435167D01*
X139887618Y-95311907D01*
X139933790Y-95259468D01*
X140000983Y-95240316D01*
X140067864Y-95260531D01*
X140112382Y-95311908D01*
X140169738Y-95434911D01*
X140169858Y-95435167D01*
X140296868Y-95616555D01*
X140453445Y-95773132D01*
X140634833Y-95900142D01*
X140755572Y-95956443D01*
X140835513Y-95993720D01*
X140835515Y-95993720D01*
X140835520Y-95993723D01*
X141049409Y-96051035D01*
X141206974Y-96064820D01*
X141269998Y-96070334D01*
X141270000Y-96070334D01*
X141270002Y-96070334D01*
X141325147Y-96065509D01*
X141490591Y-96051035D01*
X141704480Y-95993723D01*
X141905167Y-95900142D01*
X142086555Y-95773132D01*
X142243132Y-95616555D01*
X142370142Y-95435167D01*
X142427618Y-95311907D01*
X142473790Y-95259468D01*
X142540983Y-95240316D01*
X142607864Y-95260531D01*
X142652382Y-95311908D01*
X142709738Y-95434911D01*
X142709858Y-95435167D01*
X142836868Y-95616555D01*
X142993445Y-95773132D01*
X143174833Y-95900142D01*
X143295572Y-95956443D01*
X143375513Y-95993720D01*
X143375515Y-95993720D01*
X143375520Y-95993723D01*
X143589409Y-96051035D01*
X143746974Y-96064820D01*
X143809998Y-96070334D01*
X143810000Y-96070334D01*
X143810002Y-96070334D01*
X143865147Y-96065509D01*
X144030591Y-96051035D01*
X144244480Y-95993723D01*
X144445167Y-95900142D01*
X144626555Y-95773132D01*
X144783132Y-95616555D01*
X144910142Y-95435167D01*
X144967618Y-95311907D01*
X145013790Y-95259468D01*
X145080983Y-95240316D01*
X145147864Y-95260531D01*
X145192382Y-95311908D01*
X145249738Y-95434911D01*
X145249858Y-95435167D01*
X145376868Y-95616555D01*
X145533445Y-95773132D01*
X145714833Y-95900142D01*
X145835572Y-95956443D01*
X145915513Y-95993720D01*
X145915515Y-95993720D01*
X145915520Y-95993723D01*
X146129409Y-96051035D01*
X146286974Y-96064820D01*
X146349998Y-96070334D01*
X146350000Y-96070334D01*
X146350002Y-96070334D01*
X146405147Y-96065509D01*
X146570591Y-96051035D01*
X146784480Y-95993723D01*
X146985167Y-95900142D01*
X147166555Y-95773132D01*
X147323132Y-95616555D01*
X147450142Y-95435167D01*
X147507895Y-95311312D01*
X147554064Y-95258878D01*
X147621258Y-95239725D01*
X147688139Y-95259940D01*
X147732657Y-95311316D01*
X147790293Y-95434916D01*
X147790295Y-95434920D01*
X147836103Y-95500341D01*
X147836104Y-95500341D01*
X148398871Y-94937574D01*
X148414755Y-94996853D01*
X148481898Y-95113147D01*
X148576853Y-95208102D01*
X148693147Y-95275245D01*
X148752425Y-95291128D01*
X148189657Y-95853894D01*
X148255084Y-95899706D01*
X148455690Y-95993250D01*
X148455699Y-95993254D01*
X148669490Y-96050538D01*
X148669500Y-96050540D01*
X148889999Y-96069832D01*
X148890001Y-96069832D01*
X149110499Y-96050540D01*
X149110509Y-96050538D01*
X149324300Y-95993254D01*
X149324314Y-95993249D01*
X149524911Y-95899709D01*
X149524919Y-95899705D01*
X149590341Y-95853895D01*
X149027574Y-95291128D01*
X149086853Y-95275245D01*
X149203147Y-95208102D01*
X149298102Y-95113147D01*
X149365245Y-94996853D01*
X149381128Y-94937574D01*
X149943895Y-95500341D01*
X149989705Y-95434919D01*
X149989709Y-95434911D01*
X150047342Y-95311317D01*
X150093514Y-95258877D01*
X150160707Y-95239725D01*
X150227588Y-95259940D01*
X150272106Y-95311317D01*
X150329741Y-95434916D01*
X150329858Y-95435167D01*
X150456868Y-95616555D01*
X150613445Y-95773132D01*
X150794833Y-95900142D01*
X150915572Y-95956443D01*
X150995513Y-95993720D01*
X150995515Y-95993720D01*
X150995520Y-95993723D01*
X151209409Y-96051035D01*
X151366974Y-96064820D01*
X151429998Y-96070334D01*
X151430000Y-96070334D01*
X151430002Y-96070334D01*
X151485147Y-96065509D01*
X151650591Y-96051035D01*
X151864480Y-95993723D01*
X152065167Y-95900142D01*
X152246555Y-95773132D01*
X152403132Y-95616555D01*
X152530142Y-95435167D01*
X152587618Y-95311907D01*
X152633790Y-95259468D01*
X152700983Y-95240316D01*
X152767864Y-95260531D01*
X152812382Y-95311908D01*
X152869738Y-95434911D01*
X152869858Y-95435167D01*
X152996868Y-95616555D01*
X153153445Y-95773132D01*
X153334833Y-95900142D01*
X153455572Y-95956443D01*
X153535513Y-95993720D01*
X153535515Y-95993720D01*
X153535520Y-95993723D01*
X153749409Y-96051035D01*
X153906974Y-96064820D01*
X153969998Y-96070334D01*
X153970000Y-96070334D01*
X153970002Y-96070334D01*
X154025147Y-96065509D01*
X154190591Y-96051035D01*
X154404480Y-95993723D01*
X154605167Y-95900142D01*
X154786555Y-95773132D01*
X154943132Y-95616555D01*
X155070142Y-95435167D01*
X155127618Y-95311907D01*
X155173790Y-95259468D01*
X155240983Y-95240316D01*
X155307864Y-95260531D01*
X155352382Y-95311908D01*
X155409738Y-95434911D01*
X155409858Y-95435167D01*
X155536868Y-95616555D01*
X155693445Y-95773132D01*
X155874833Y-95900142D01*
X155995572Y-95956443D01*
X156075513Y-95993720D01*
X156075515Y-95993720D01*
X156075520Y-95993723D01*
X156289409Y-96051035D01*
X156446974Y-96064820D01*
X156509998Y-96070334D01*
X156510000Y-96070334D01*
X156510002Y-96070334D01*
X156565147Y-96065509D01*
X156730591Y-96051035D01*
X156944480Y-95993723D01*
X157145167Y-95900142D01*
X157326555Y-95773132D01*
X157483132Y-95616555D01*
X157610142Y-95435167D01*
X157667618Y-95311907D01*
X157713790Y-95259468D01*
X157780983Y-95240316D01*
X157847864Y-95260531D01*
X157892382Y-95311908D01*
X157949738Y-95434911D01*
X157949858Y-95435167D01*
X158076868Y-95616555D01*
X158233445Y-95773132D01*
X158414833Y-95900142D01*
X158535572Y-95956443D01*
X158615513Y-95993720D01*
X158615515Y-95993720D01*
X158615520Y-95993723D01*
X158829409Y-96051035D01*
X158986974Y-96064820D01*
X159049998Y-96070334D01*
X159050000Y-96070334D01*
X159050002Y-96070334D01*
X159105147Y-96065509D01*
X159270591Y-96051035D01*
X159484480Y-95993723D01*
X159685167Y-95900142D01*
X159866555Y-95773132D01*
X160023132Y-95616555D01*
X160150142Y-95435167D01*
X160207618Y-95311907D01*
X160253790Y-95259468D01*
X160320983Y-95240316D01*
X160387864Y-95260531D01*
X160432382Y-95311908D01*
X160489738Y-95434911D01*
X160489858Y-95435167D01*
X160616868Y-95616555D01*
X160773445Y-95773132D01*
X160954833Y-95900142D01*
X161075572Y-95956443D01*
X161155513Y-95993720D01*
X161155515Y-95993720D01*
X161155520Y-95993723D01*
X161369409Y-96051035D01*
X161526974Y-96064820D01*
X161589998Y-96070334D01*
X161590000Y-96070334D01*
X161590002Y-96070334D01*
X161645147Y-96065509D01*
X161810591Y-96051035D01*
X162024480Y-95993723D01*
X162225167Y-95900142D01*
X162406555Y-95773132D01*
X162563132Y-95616555D01*
X162690142Y-95435167D01*
X162747618Y-95311907D01*
X162793790Y-95259468D01*
X162860983Y-95240316D01*
X162927864Y-95260531D01*
X162972382Y-95311908D01*
X163029738Y-95434911D01*
X163029858Y-95435167D01*
X163156868Y-95616555D01*
X163313445Y-95773132D01*
X163494833Y-95900142D01*
X163615572Y-95956443D01*
X163695513Y-95993720D01*
X163695515Y-95993720D01*
X163695520Y-95993723D01*
X163909409Y-96051035D01*
X164066974Y-96064820D01*
X164129998Y-96070334D01*
X164130000Y-96070334D01*
X164130002Y-96070334D01*
X164185147Y-96065509D01*
X164350591Y-96051035D01*
X164564480Y-95993723D01*
X164765167Y-95900142D01*
X164946555Y-95773132D01*
X165103132Y-95616555D01*
X165230142Y-95435167D01*
X165287618Y-95311907D01*
X165333790Y-95259468D01*
X165400983Y-95240316D01*
X165467864Y-95260531D01*
X165512382Y-95311908D01*
X165569738Y-95434911D01*
X165569858Y-95435167D01*
X165696868Y-95616555D01*
X165853445Y-95773132D01*
X166034833Y-95900142D01*
X166155572Y-95956443D01*
X166235513Y-95993720D01*
X166235515Y-95993720D01*
X166235520Y-95993723D01*
X166449409Y-96051035D01*
X166606974Y-96064820D01*
X166669998Y-96070334D01*
X166670000Y-96070334D01*
X166670002Y-96070334D01*
X166725147Y-96065509D01*
X166890591Y-96051035D01*
X167104480Y-95993723D01*
X167305167Y-95900142D01*
X167486555Y-95773132D01*
X167643132Y-95616555D01*
X167770142Y-95435167D01*
X167827618Y-95311907D01*
X167873790Y-95259468D01*
X167940983Y-95240316D01*
X168007864Y-95260531D01*
X168052382Y-95311908D01*
X168109738Y-95434911D01*
X168109858Y-95435167D01*
X168236868Y-95616555D01*
X168393445Y-95773132D01*
X168574833Y-95900142D01*
X168695572Y-95956443D01*
X168775513Y-95993720D01*
X168775515Y-95993720D01*
X168775520Y-95993723D01*
X168989409Y-96051035D01*
X169146974Y-96064820D01*
X169209998Y-96070334D01*
X169210000Y-96070334D01*
X169210002Y-96070334D01*
X169265147Y-96065509D01*
X169430591Y-96051035D01*
X169644480Y-95993723D01*
X169845167Y-95900142D01*
X170026555Y-95773132D01*
X170183132Y-95616555D01*
X170310142Y-95435167D01*
X170367618Y-95311907D01*
X170413790Y-95259468D01*
X170480983Y-95240316D01*
X170547864Y-95260531D01*
X170592382Y-95311908D01*
X170649738Y-95434911D01*
X170649858Y-95435167D01*
X170776868Y-95616555D01*
X170933445Y-95773132D01*
X171114833Y-95900142D01*
X171235572Y-95956443D01*
X171315513Y-95993720D01*
X171315515Y-95993720D01*
X171315520Y-95993723D01*
X171529409Y-96051035D01*
X171686974Y-96064820D01*
X171749998Y-96070334D01*
X171750000Y-96070334D01*
X171750002Y-96070334D01*
X171805147Y-96065509D01*
X171970591Y-96051035D01*
X172184480Y-95993723D01*
X172385167Y-95900142D01*
X172566555Y-95773132D01*
X172723132Y-95616555D01*
X172850142Y-95435167D01*
X172907618Y-95311907D01*
X172953790Y-95259468D01*
X173020983Y-95240316D01*
X173087864Y-95260531D01*
X173132382Y-95311908D01*
X173189738Y-95434911D01*
X173189858Y-95435167D01*
X173316868Y-95616555D01*
X173473445Y-95773132D01*
X173654833Y-95900142D01*
X173775572Y-95956443D01*
X173855513Y-95993720D01*
X173855515Y-95993720D01*
X173855520Y-95993723D01*
X174069409Y-96051035D01*
X174226974Y-96064820D01*
X174289998Y-96070334D01*
X174290000Y-96070334D01*
X174290002Y-96070334D01*
X174345147Y-96065509D01*
X174510591Y-96051035D01*
X174724480Y-95993723D01*
X174925167Y-95900142D01*
X175106555Y-95773132D01*
X175263132Y-95616555D01*
X175390142Y-95435167D01*
X175447618Y-95311907D01*
X175493790Y-95259468D01*
X175560983Y-95240316D01*
X175627864Y-95260531D01*
X175672382Y-95311908D01*
X175729738Y-95434911D01*
X175729858Y-95435167D01*
X175856868Y-95616555D01*
X176013445Y-95773132D01*
X176194833Y-95900142D01*
X176315572Y-95956443D01*
X176395513Y-95993720D01*
X176395515Y-95993720D01*
X176395520Y-95993723D01*
X176609409Y-96051035D01*
X176766974Y-96064820D01*
X176829998Y-96070334D01*
X176830000Y-96070334D01*
X176830002Y-96070334D01*
X176885147Y-96065509D01*
X177050591Y-96051035D01*
X177264480Y-95993723D01*
X177465167Y-95900142D01*
X177646555Y-95773132D01*
X177803132Y-95616555D01*
X177930142Y-95435167D01*
X177987618Y-95311907D01*
X178033790Y-95259468D01*
X178100983Y-95240316D01*
X178167864Y-95260531D01*
X178212382Y-95311908D01*
X178269738Y-95434911D01*
X178269858Y-95435167D01*
X178396868Y-95616555D01*
X178553445Y-95773132D01*
X178734833Y-95900142D01*
X178855572Y-95956443D01*
X178935513Y-95993720D01*
X178935515Y-95993720D01*
X178935520Y-95993723D01*
X179149409Y-96051035D01*
X179306974Y-96064820D01*
X179369998Y-96070334D01*
X179370000Y-96070334D01*
X179370002Y-96070334D01*
X179425147Y-96065509D01*
X179590591Y-96051035D01*
X179804480Y-95993723D01*
X180005167Y-95900142D01*
X180186555Y-95773132D01*
X180343132Y-95616555D01*
X180470142Y-95435167D01*
X180563723Y-95234480D01*
X180621035Y-95020591D01*
X180640334Y-94800000D01*
X180621035Y-94579409D01*
X180563723Y-94365520D01*
X180551574Y-94339467D01*
X180470143Y-94164836D01*
X180470142Y-94164834D01*
X180470142Y-94164833D01*
X180343132Y-93983445D01*
X180186555Y-93826868D01*
X180005167Y-93699858D01*
X180005163Y-93699856D01*
X179804486Y-93606279D01*
X179804475Y-93606275D01*
X179590592Y-93548965D01*
X179590585Y-93548964D01*
X179370002Y-93529666D01*
X179369998Y-93529666D01*
X179149414Y-93548964D01*
X179149407Y-93548965D01*
X178935524Y-93606275D01*
X178935513Y-93606279D01*
X178734836Y-93699856D01*
X178734834Y-93699857D01*
X178553444Y-93826868D01*
X178396868Y-93983444D01*
X178269857Y-94164834D01*
X178269856Y-94164836D01*
X178212382Y-94288091D01*
X178166210Y-94340531D01*
X178099017Y-94359683D01*
X178032135Y-94339467D01*
X177987618Y-94288091D01*
X177930143Y-94164836D01*
X177930142Y-94164834D01*
X177930142Y-94164833D01*
X177803132Y-93983445D01*
X177646555Y-93826868D01*
X177465167Y-93699858D01*
X177465163Y-93699856D01*
X177264486Y-93606279D01*
X177264475Y-93606275D01*
X177050592Y-93548965D01*
X177050585Y-93548964D01*
X176830002Y-93529666D01*
X176829998Y-93529666D01*
X176609414Y-93548964D01*
X176609407Y-93548965D01*
X176395524Y-93606275D01*
X176395513Y-93606279D01*
X176194836Y-93699856D01*
X176194834Y-93699857D01*
X176013444Y-93826868D01*
X175856868Y-93983444D01*
X175729857Y-94164834D01*
X175729856Y-94164836D01*
X175672382Y-94288091D01*
X175626210Y-94340531D01*
X175559017Y-94359683D01*
X175492135Y-94339467D01*
X175447618Y-94288091D01*
X175390143Y-94164836D01*
X175390142Y-94164834D01*
X175390142Y-94164833D01*
X175263132Y-93983445D01*
X175106555Y-93826868D01*
X174925167Y-93699858D01*
X174925163Y-93699856D01*
X174724486Y-93606279D01*
X174724475Y-93606275D01*
X174510592Y-93548965D01*
X174510585Y-93548964D01*
X174290002Y-93529666D01*
X174289998Y-93529666D01*
X174069414Y-93548964D01*
X174069407Y-93548965D01*
X173855524Y-93606275D01*
X173855513Y-93606279D01*
X173654836Y-93699856D01*
X173654834Y-93699857D01*
X173473444Y-93826868D01*
X173316868Y-93983444D01*
X173189857Y-94164834D01*
X173189856Y-94164836D01*
X173132382Y-94288091D01*
X173086210Y-94340531D01*
X173019017Y-94359683D01*
X172952135Y-94339467D01*
X172907618Y-94288091D01*
X172850143Y-94164836D01*
X172850142Y-94164834D01*
X172850142Y-94164833D01*
X172723132Y-93983445D01*
X172586819Y-93847132D01*
X172553334Y-93785809D01*
X172550500Y-93759451D01*
X172550500Y-93500000D01*
X181999500Y-93500000D01*
X181999500Y-116104217D01*
G37*
%TD.AperFunction*%
%TA.AperFunction,Conductor*%
G36*
X163166435Y-93798513D02*
G01*
X163199920Y-93859836D01*
X163194936Y-93929528D01*
X163166442Y-93973869D01*
X163156873Y-93983439D01*
X163156867Y-93983445D01*
X163029862Y-94164826D01*
X163029856Y-94164836D01*
X162972382Y-94288091D01*
X162926210Y-94340531D01*
X162859017Y-94359683D01*
X162792135Y-94339467D01*
X162747618Y-94288091D01*
X162690143Y-94164836D01*
X162690142Y-94164834D01*
X162690142Y-94164833D01*
X162563132Y-93983445D01*
X162406555Y-93826868D01*
X162225167Y-93699858D01*
X162225163Y-93699856D01*
X162024486Y-93606279D01*
X162024475Y-93606275D01*
X161810592Y-93548965D01*
X161810585Y-93548964D01*
X161590002Y-93529666D01*
X161589998Y-93529666D01*
X161369414Y-93548964D01*
X161369407Y-93548965D01*
X161155524Y-93606275D01*
X161155513Y-93606279D01*
X160954836Y-93699856D01*
X160954834Y-93699857D01*
X160773444Y-93826868D01*
X160616868Y-93983444D01*
X160489857Y-94164834D01*
X160489856Y-94164836D01*
X160432382Y-94288091D01*
X160386210Y-94340531D01*
X160319017Y-94359683D01*
X160252135Y-94339467D01*
X160207618Y-94288091D01*
X160150143Y-94164836D01*
X160150142Y-94164834D01*
X160150142Y-94164833D01*
X160023132Y-93983445D01*
X159866555Y-93826868D01*
X159685167Y-93699858D01*
X159685163Y-93699856D01*
X159484486Y-93606279D01*
X159484475Y-93606275D01*
X159270592Y-93548965D01*
X159270585Y-93548964D01*
X159050002Y-93529666D01*
X159049998Y-93529666D01*
X158829414Y-93548964D01*
X158829407Y-93548965D01*
X158615524Y-93606275D01*
X158615513Y-93606279D01*
X158414836Y-93699856D01*
X158414834Y-93699857D01*
X158233444Y-93826868D01*
X158076868Y-93983444D01*
X157949857Y-94164834D01*
X157949856Y-94164836D01*
X157892382Y-94288091D01*
X157846210Y-94340531D01*
X157779017Y-94359683D01*
X157712135Y-94339467D01*
X157667618Y-94288091D01*
X157610143Y-94164836D01*
X157610142Y-94164834D01*
X157610142Y-94164833D01*
X157483132Y-93983445D01*
X157326555Y-93826868D01*
X157145167Y-93699858D01*
X157145163Y-93699856D01*
X156944486Y-93606279D01*
X156944475Y-93606275D01*
X156730592Y-93548965D01*
X156730585Y-93548964D01*
X156510002Y-93529666D01*
X156509998Y-93529666D01*
X156289414Y-93548964D01*
X156289407Y-93548965D01*
X156075524Y-93606275D01*
X156075513Y-93606279D01*
X155874836Y-93699856D01*
X155874834Y-93699857D01*
X155693444Y-93826868D01*
X155536868Y-93983444D01*
X155409857Y-94164834D01*
X155409856Y-94164836D01*
X155352382Y-94288091D01*
X155306210Y-94340531D01*
X155239017Y-94359683D01*
X155172135Y-94339467D01*
X155127618Y-94288091D01*
X155070143Y-94164836D01*
X155070142Y-94164834D01*
X155070142Y-94164833D01*
X154943132Y-93983445D01*
X154786555Y-93826868D01*
X154605167Y-93699858D01*
X154605163Y-93699856D01*
X154404486Y-93606279D01*
X154404475Y-93606275D01*
X154190592Y-93548965D01*
X154190585Y-93548964D01*
X153970002Y-93529666D01*
X153969998Y-93529666D01*
X153749414Y-93548964D01*
X153749407Y-93548965D01*
X153535524Y-93606275D01*
X153535513Y-93606279D01*
X153334836Y-93699856D01*
X153334834Y-93699857D01*
X153153444Y-93826868D01*
X152996868Y-93983444D01*
X152869857Y-94164834D01*
X152869856Y-94164836D01*
X152812382Y-94288091D01*
X152766210Y-94340531D01*
X152699017Y-94359683D01*
X152632135Y-94339467D01*
X152587618Y-94288091D01*
X152530143Y-94164836D01*
X152530142Y-94164834D01*
X152530142Y-94164833D01*
X152403132Y-93983445D01*
X152246555Y-93826868D01*
X152065167Y-93699858D01*
X152065163Y-93699856D01*
X151864486Y-93606279D01*
X151864475Y-93606275D01*
X151650592Y-93548965D01*
X151650585Y-93548964D01*
X151430002Y-93529666D01*
X151429998Y-93529666D01*
X151209414Y-93548964D01*
X151209407Y-93548965D01*
X150995524Y-93606275D01*
X150995513Y-93606279D01*
X150794836Y-93699856D01*
X150794834Y-93699857D01*
X150613444Y-93826868D01*
X150456868Y-93983444D01*
X150329857Y-94164833D01*
X150272106Y-94288683D01*
X150225934Y-94341122D01*
X150158740Y-94360274D01*
X150091859Y-94340058D01*
X150047342Y-94288683D01*
X149989707Y-94165084D01*
X149943894Y-94099657D01*
X149381128Y-94662424D01*
X149365245Y-94603147D01*
X149298102Y-94486853D01*
X149203147Y-94391898D01*
X149086853Y-94324755D01*
X149027574Y-94308871D01*
X149590341Y-93746104D01*
X149590341Y-93746103D01*
X149524920Y-93700295D01*
X149524916Y-93700293D01*
X149324309Y-93606749D01*
X149324300Y-93606745D01*
X149110509Y-93549461D01*
X149110499Y-93549459D01*
X148890001Y-93530168D01*
X148889999Y-93530168D01*
X148669500Y-93549459D01*
X148669490Y-93549461D01*
X148455699Y-93606745D01*
X148455690Y-93606749D01*
X148255080Y-93700295D01*
X148189658Y-93746103D01*
X148189657Y-93746104D01*
X148752425Y-94308871D01*
X148693147Y-94324755D01*
X148576853Y-94391898D01*
X148481898Y-94486853D01*
X148414755Y-94603147D01*
X148398871Y-94662424D01*
X147836104Y-94099657D01*
X147836103Y-94099658D01*
X147790294Y-94165080D01*
X147732657Y-94288683D01*
X147686484Y-94341122D01*
X147619290Y-94360274D01*
X147552409Y-94340058D01*
X147507893Y-94288682D01*
X147450142Y-94164833D01*
X147323132Y-93983445D01*
X147166555Y-93826868D01*
X146985167Y-93699858D01*
X146985163Y-93699856D01*
X146784486Y-93606279D01*
X146784475Y-93606275D01*
X146570592Y-93548965D01*
X146570585Y-93548964D01*
X146350002Y-93529666D01*
X146349998Y-93529666D01*
X146129414Y-93548964D01*
X146129407Y-93548965D01*
X145915524Y-93606275D01*
X145915513Y-93606279D01*
X145714836Y-93699856D01*
X145714834Y-93699857D01*
X145533444Y-93826868D01*
X145376868Y-93983444D01*
X145249857Y-94164834D01*
X145249856Y-94164836D01*
X145192382Y-94288091D01*
X145146210Y-94340531D01*
X145079017Y-94359683D01*
X145012135Y-94339467D01*
X144967618Y-94288091D01*
X144910143Y-94164836D01*
X144910142Y-94164834D01*
X144910142Y-94164833D01*
X144783132Y-93983445D01*
X144626555Y-93826868D01*
X144445167Y-93699858D01*
X144445163Y-93699856D01*
X144244486Y-93606279D01*
X144244475Y-93606275D01*
X144030592Y-93548965D01*
X144030585Y-93548964D01*
X143810002Y-93529666D01*
X143809998Y-93529666D01*
X143589414Y-93548964D01*
X143589407Y-93548965D01*
X143375524Y-93606275D01*
X143375513Y-93606279D01*
X143174836Y-93699856D01*
X143174834Y-93699857D01*
X142993444Y-93826868D01*
X142836868Y-93983444D01*
X142709857Y-94164834D01*
X142709856Y-94164836D01*
X142652382Y-94288091D01*
X142606210Y-94340531D01*
X142539017Y-94359683D01*
X142472135Y-94339467D01*
X142427618Y-94288091D01*
X142370143Y-94164836D01*
X142370142Y-94164834D01*
X142370142Y-94164833D01*
X142243132Y-93983445D01*
X142086555Y-93826868D01*
X141905167Y-93699858D01*
X141905163Y-93699856D01*
X141704486Y-93606279D01*
X141704475Y-93606275D01*
X141490592Y-93548965D01*
X141490585Y-93548964D01*
X141270002Y-93529666D01*
X141269998Y-93529666D01*
X141049414Y-93548964D01*
X141049407Y-93548965D01*
X140835524Y-93606275D01*
X140835513Y-93606279D01*
X140634836Y-93699856D01*
X140634834Y-93699857D01*
X140453444Y-93826868D01*
X140296868Y-93983444D01*
X140169857Y-94164834D01*
X140169856Y-94164836D01*
X140112382Y-94288091D01*
X140066210Y-94340531D01*
X139999017Y-94359683D01*
X139932135Y-94339467D01*
X139887618Y-94288091D01*
X139830143Y-94164836D01*
X139830142Y-94164834D01*
X139830142Y-94164833D01*
X139703132Y-93983445D01*
X139546555Y-93826868D01*
X139365167Y-93699858D01*
X139365163Y-93699856D01*
X139164486Y-93606279D01*
X139164475Y-93606275D01*
X138950592Y-93548965D01*
X138950585Y-93548964D01*
X138730002Y-93529666D01*
X138729998Y-93529666D01*
X138509414Y-93548964D01*
X138509407Y-93548965D01*
X138295524Y-93606275D01*
X138295513Y-93606279D01*
X138094836Y-93699856D01*
X138094834Y-93699857D01*
X137913444Y-93826868D01*
X137756868Y-93983444D01*
X137629857Y-94164834D01*
X137629856Y-94164836D01*
X137572382Y-94288091D01*
X137526210Y-94340531D01*
X137459017Y-94359683D01*
X137392135Y-94339467D01*
X137347618Y-94288091D01*
X137290143Y-94164836D01*
X137290142Y-94164834D01*
X137290142Y-94164833D01*
X137163132Y-93983445D01*
X137006555Y-93826868D01*
X136825167Y-93699858D01*
X136825163Y-93699856D01*
X136624486Y-93606279D01*
X136624475Y-93606275D01*
X136410592Y-93548965D01*
X136410585Y-93548964D01*
X136190002Y-93529666D01*
X136189998Y-93529666D01*
X135969414Y-93548964D01*
X135969407Y-93548965D01*
X135755524Y-93606275D01*
X135755513Y-93606279D01*
X135554836Y-93699856D01*
X135554834Y-93699857D01*
X135373444Y-93826868D01*
X135216868Y-93983444D01*
X135089857Y-94164834D01*
X135089856Y-94164836D01*
X135032382Y-94288091D01*
X134986210Y-94340531D01*
X134919017Y-94359683D01*
X134852135Y-94339467D01*
X134807618Y-94288091D01*
X134750143Y-94164836D01*
X134750142Y-94164834D01*
X134750142Y-94164833D01*
X134623132Y-93983445D01*
X134466555Y-93826868D01*
X134285167Y-93699858D01*
X134285163Y-93699856D01*
X134084486Y-93606279D01*
X134084475Y-93606275D01*
X133870592Y-93548965D01*
X133870585Y-93548964D01*
X133650002Y-93529666D01*
X133649998Y-93529666D01*
X133429414Y-93548964D01*
X133429407Y-93548965D01*
X133215524Y-93606275D01*
X133215518Y-93606278D01*
X133176903Y-93624284D01*
X133107826Y-93634775D01*
X133044042Y-93606254D01*
X133005803Y-93547777D01*
X133000500Y-93511901D01*
X133000500Y-93500000D01*
X162867922Y-93500000D01*
X163166435Y-93798513D01*
G37*
%TD.AperFunction*%
%TD*%
M02*
